<?xml version="1.0" encoding="UTF-8"?>
<svg
    xmlns="http://www.w3.org/2000/svg"
    viewBox="0 0 1000 1000"
    width="1000"
    height="1000">

  <!-- Blue circle background -->
  <circle cx="500" cy="500" r="500" fill="#0B5FA5"/>

  <!-- White spiral shape -->
  <path
    fill="#FFFFFF"
    d="
      M500,180
      C650,180 780,300 780,450
      C780,580 680,650 600,650
      C520,650 470,600 470,550
      C470,510 500,480 540,480
      C580,480 610,510 610,550
      C610,620 550,700 450,700
      C320,700 220,600 220,470
      C220,300 360,180 500,180
      Z
    "/>

  <!-- Inner spiral -->
  <path
    fill="#FFFFFF"
    d="
      M500,300
      C400,300 330,380 330,470
      C330,560 400,620 470,620
      C540,620 590,570 590,520
      C590,480 560,450 520,450
      C480,450 460,480 460,510
      C460,560 420,600 370,600
      C300,600 260,540 260,470
      C260,360 350,300 500,300
      Z
    "/>

</svg>
