<svg width="32" height="32" viewBox="0 0 32 32" fill="none" xmlns="http://www.w3.org/2000/svg">
<g clip-path="url(#clip0_601_10)">
<path d="M6.76588 8.48789C5.75307 9.70445 4.99682 11.1123 4.54213 12.6154C4.30505 13.3985 4.14057 14.2385 4.04869 15.1354C3.99776 15.6335 3.99588 16.1666 4.00307 16.6482C4.01786 17.6567 4.17682 18.6576 4.47994 19.6507C4.59369 20.0238 4.6738 20.2718 4.72025 20.3948C4.88005 20.8208 5.05046 21.2142 5.23151 21.5751C6.31369 23.7332 8.01213 25.5688 10.0846 26.817C11.2784 27.5357 12.6431 28.0348 14.0099 28.3026C14.0539 28.3111 14.254 28.3463 14.6103 28.4082C14.7749 28.4366 14.9287 28.441 15.0931 28.4663C15.1843 28.4803 15.3054 28.4926 15.4562 28.5032C16.0049 28.5424 16.473 28.5529 16.8603 28.5348C17.3392 28.5125 17.7944 28.469 18.2259 28.4045C18.9715 28.2932 19.7112 28.116 20.4321 27.8654C20.6621 27.7856 20.8092 27.7334 20.8734 27.7088C21.3824 27.5148 21.9734 27.241 22.4509 26.967C23.294 26.4832 24.0489 25.9341 24.7156 25.3198C25.0493 25.0121 25.3442 24.7171 25.6003 24.4348C26.6873 23.2377 27.5023 21.8923 28.0453 20.3985C29.0981 17.501 28.969 14.2613 27.7687 11.4288C27.5043 10.8047 27.1431 10.1368 26.6849 9.42539C26.5649 9.23872 26.4161 9.02976 26.2384 8.79851C26.0303 8.52789 25.8674 8.32633 25.7499 8.19383C25.0497 7.40612 24.2586 6.71435 23.3765 6.11851C21.9363 5.14622 20.3654 4.50226 18.6637 4.18664C18.3493 4.12831 18.0515 4.08706 17.7703 4.06289C17.3482 4.02622 16.926 4.00549 16.5037 4.0007C15.8584 3.9932 15.1549 4.04633 14.5287 4.13476C13.5674 4.27039 12.6028 4.51664 11.6965 4.88883C11.3519 5.03008 11.0592 5.1606 10.8184 5.28039C10.0055 5.68476 9.24317 6.17529 8.5315 6.75195C8.35692 6.8932 8.17151 7.04987 7.97526 7.22195C7.85401 7.32841 7.62859 7.54914 7.29901 7.88414C7.16921 8.01581 6.9915 8.21706 6.76588 8.48789Z" stroke="#80848E" stroke-width="2"/>
<path d="M6.79086 8.50724C5.78054 9.72099 5.02617 11.1254 4.57273 12.6247C4.33648 13.406 4.17252 14.244 4.08086 15.1388C4.03023 15.6357 4.02836 16.1672 4.03554 16.6479C4.05033 17.6539 4.20898 18.6522 4.51148 19.6429C4.62502 20.0149 4.70492 20.2623 4.75117 20.3851C4.91075 20.8101 5.08086 21.2024 5.26148 21.5622C6.34117 23.7151 8.03554 25.546 10.103 26.791C11.294 27.5079 12.6552 28.0054 14.0187 28.2726C14.0626 28.2811 14.2623 28.3162 14.6177 28.3779C14.7818 28.4063 14.9352 28.4104 15.0993 28.4357C15.1903 28.4496 15.3111 28.4619 15.4615 28.4726C16.009 28.5115 16.4759 28.5219 16.8621 28.5038C17.3398 28.4815 17.7939 28.4382 18.2243 28.3738C18.968 28.2626 19.7059 28.086 20.4252 27.8357C20.6546 27.7561 20.8013 27.7041 20.8652 27.6797C21.373 27.486 21.9624 27.2129 22.4387 26.9394C23.2797 26.4567 24.0327 25.9089 24.6977 25.296C25.0306 24.9891 25.3248 24.6948 25.5802 24.4132C26.6644 23.219 27.4772 21.8768 28.0187 20.3866C29.0687 17.4963 28.9396 14.2644 27.7421 11.4391C27.4784 10.8164 27.1179 10.1503 26.6609 9.44068C26.5411 9.25443 26.3925 9.04599 26.2152 8.81536C26.0077 8.54536 25.8453 8.34432 25.728 8.21224C25.0295 7.42662 24.2402 6.73662 23.3602 6.14224C21.9236 5.17245 20.3565 4.53026 18.659 4.21568C18.3452 4.15755 18.0481 4.11641 17.7677 4.09224C17.3467 4.05578 16.9255 4.03516 16.5043 4.03037C15.8605 4.02287 15.1587 4.07599 14.534 4.16412C13.5752 4.29943 12.613 4.54537 11.709 4.91662C11.3652 5.05766 11.0733 5.18787 10.833 5.30724C10.0222 5.71078 9.26179 6.20016 8.55179 6.77537C8.37763 6.91641 8.19273 7.07276 7.99711 7.24443C7.87606 7.35068 7.65117 7.57089 7.32242 7.90505C7.19304 8.0363 7.01586 8.23703 6.79086 8.50724Z" stroke="#052F64" stroke-width="2"/>
<path d="M17.2583 25.0576L18.0617 25.0651" stroke="#85ABD6" stroke-width="2"/>
<path d="M18.0619 25.0651C18.3844 25.0626 18.7043 25.0281 19.0216 24.9616C19.3375 24.8954 19.5985 24.831 19.8047 24.7685C20.1952 24.6502 20.6085 24.4787 21.0447 24.2541C21.2058 24.1714 21.3777 24.0692 21.5604 23.9476C21.8114 23.7805 21.9754 23.6658 22.0522 23.6035C22.2514 23.442 22.4365 23.2739 22.6076 23.0991C22.7667 22.9364 22.9188 22.76 23.0638 22.5697C23.2542 22.32 23.3906 22.1308 23.4729 22.0022C23.756 21.5597 23.9944 21.0627 24.1882 20.511C24.2982 20.1985 24.3804 19.8394 24.4326 19.5344C24.4786 19.2676 24.5113 18.9693 24.5307 18.6397C24.5486 18.3368 24.5472 18.1033 24.5266 17.9391C24.4991 17.7188 24.4838 17.5188 24.4491 17.311C24.3756 16.8702 24.2567 16.4312 24.0926 15.9941C24.028 15.8218 23.9483 15.6467 23.8535 15.4688C23.6747 15.1332 23.4819 14.8288 23.2751 14.5557C22.973 14.1569 22.6044 13.8038 22.1694 13.4963C21.9576 13.3465 21.7577 13.2209 21.5697 13.1194C21.1943 12.9167 20.7649 12.7501 20.2813 12.6194C20.1507 12.5841 20.0429 12.5704 19.9057 12.5401C19.5063 12.451 19.0804 12.4413 18.641 12.461C18.4419 12.4701 18.2632 12.5013 18.0894 12.5219C17.8057 12.5557 17.4933 12.6304 17.1522 12.746C16.6281 12.9241 16.1286 13.1895 15.6538 13.5422C15.2386 13.8506 14.8788 14.1936 14.5744 14.5713C14.3438 14.8579 14.1694 15.1844 14.0385 15.441C14.0378 15.4425 14.0367 15.4437 14.0353 15.4444C14.0339 15.4452 14.0322 15.4455 14.0306 15.4452C14.0291 15.4449 14.0276 15.4441 14.0265 15.4429C14.0255 15.4416 14.0248 15.4401 14.0247 15.4385C13.9954 15.1641 14.0125 14.9034 14.076 14.6563C14.1281 14.453 14.1757 14.2983 14.2188 14.1922C14.2551 14.1031 14.3269 13.9484 14.4344 13.7282C14.4838 13.6269 14.5797 13.4817 14.7222 13.2926C14.7277 13.2855 14.7325 13.278 14.7366 13.2701C14.8229 13.1154 14.9188 13.031 15.0282 12.9001C15.4065 12.4459 15.865 12.0521 16.4035 11.7188C16.6422 11.5709 16.8822 11.4399 17.1235 11.3257C17.3502 11.2184 17.6061 11.1222 17.8913 11.0372C18.4499 10.8704 19.0026 10.7714 19.5494 10.7404C19.8359 10.7243 20.082 10.7264 20.2879 10.7466C20.4352 10.761 20.5193 10.7689 20.5404 10.7704C20.7072 10.7807 20.8388 10.8147 20.9941 10.8354C21.05 10.8429 21.1172 10.8557 21.196 10.8738C21.9085 11.0384 22.5692 11.3346 23.1782 11.7626C23.6009 12.0594 23.9856 12.3984 24.3322 12.7794C24.9647 13.4738 25.4851 14.2363 25.9538 15.0479C26.0144 15.1529 26.1019 15.2491 26.2388 15.2347C26.2505 15.2335 26.2614 15.2285 26.2697 15.2204C26.306 15.185 26.3241 15.1485 26.3241 15.111C26.3235 14.9622 26.3109 14.8285 26.2863 14.7097C26.1869 14.2297 26.0841 13.8217 25.9779 13.4857C25.7066 12.6269 25.3217 11.8268 24.8232 11.0854C24.6399 10.8129 24.3982 10.5137 24.0982 10.1879C23.9135 9.98787 23.6407 9.75725 23.4638 9.61568C22.7009 9.00568 21.8366 8.60985 20.871 8.42818C20.6383 8.38423 20.4166 8.35173 20.206 8.33068C20.1329 8.32339 20.0753 8.32027 20.0332 8.32131C19.8807 8.32475 19.7397 8.30318 19.5988 8.3085C19.3163 8.31881 19.0447 8.31818 18.786 8.36568C18.7554 8.3711 18.6849 8.38183 18.5744 8.39787C17.9374 8.48933 17.3061 8.69537 16.6807 9.016C16.3217 9.19995 15.9894 9.406 15.6838 9.63412C15.324 9.90266 14.9818 10.207 14.6572 10.5472C14.5582 10.651 14.4707 10.7785 14.3782 10.8801C14.3182 10.9463 14.2513 11.0315 14.1776 11.1357C14.038 11.333 13.9572 11.4496 13.9354 11.4857C13.6579 11.9432 13.4029 12.4472 13.2244 12.9697C12.9594 13.7454 12.8582 14.5441 12.9207 15.366C12.9549 15.8135 13.0825 16.2887 13.3035 16.7916C13.4085 17.0304 13.5929 17.3072 13.7469 17.5051C14.2041 18.0929 14.8866 18.5522 15.6288 18.6397C15.9513 18.6777 16.2532 18.6642 16.5344 18.5994C16.8196 18.5338 17.0739 18.4519 17.2972 18.3538C17.317 18.3451 17.339 18.3416 17.3632 18.3435C17.3648 18.3436 17.3663 18.3442 17.3675 18.3451C17.3688 18.346 17.3698 18.3473 17.3704 18.3488C17.371 18.3502 17.3711 18.3518 17.3709 18.3534C17.3706 18.3549 17.3699 18.3564 17.3688 18.3576C16.9651 18.7905 16.4811 19.1033 15.9169 19.296C15.7563 19.3508 15.6089 19.3856 15.4747 19.4004C15.222 19.4281 14.976 19.4302 14.7366 19.4066C14.1582 19.3501 13.6016 18.9922 13.2157 18.5685C13.0369 18.3722 12.933 18.2547 12.9038 18.216C12.5288 17.7206 12.2492 17.2269 12.0651 16.7351C12.0103 16.5888 11.9445 16.3994 11.8679 16.1669C11.8383 16.0773 11.7749 15.8133 11.6776 15.3747C11.6696 15.3387 11.6649 15.3009 11.6632 15.2613C11.6594 15.1663 11.6351 15.0685 11.6241 14.9769C11.5743 14.569 11.5641 14.1358 11.5935 13.6772C11.6627 12.5975 11.9365 11.5769 12.4151 10.6157C12.5363 10.3719 12.6066 10.2336 12.626 10.2007C12.8485 9.82162 13.0754 9.46068 13.3447 9.12943C13.4843 8.95818 13.5984 8.82527 13.6869 8.73068C13.9397 8.461 14.2469 8.156 14.5791 7.88537C14.8214 7.68808 14.9761 7.56516 15.0432 7.51662C15.228 7.38287 15.5164 7.19485 15.9085 6.95256C15.9718 6.91339 16.0051 6.8711 16.0082 6.82568" stroke="#052F64" stroke-width="2"/>
<path d="M16.008 6.82568C16.0221 6.79423 16.0007 6.75777 15.9436 6.71631" stroke="#85ABD6" stroke-width="2"/>
<path d="M15.9436 6.71631C15.6842 6.72152 15.3808 6.77204 15.0333 6.86787C14.7985 6.93266 14.5679 7.00058 14.3414 7.07162C14.2454 7.10162 14.1549 7.13443 14.0702 7.17006C14.0641 7.17256 13.9748 7.2087 13.8023 7.2785C13.3794 7.44995 12.9411 7.67016 12.4873 7.93912C12.369 8.00912 12.2766 8.06745 12.2102 8.11412C11.9833 8.27256 11.767 8.40725 11.5383 8.58225C11.1166 8.90495 10.7225 9.26339 10.3561 9.65756C9.52755 10.5488 8.93109 11.5697 8.56671 12.7204C8.51817 12.8739 8.46744 13.0645 8.41453 13.2922C8.34869 13.5764 8.30859 13.7694 8.29421 13.8713C8.18692 14.6359 8.1613 15.3556 8.21734 16.0304C8.2388 16.2887 8.2939 16.6215 8.38265 17.0288C8.39984 17.1079 8.43796 17.1847 8.45421 17.2576C8.45798 17.2743 8.45762 17.2918 8.45316 17.3084C8.4487 17.3251 8.44027 17.3404 8.42859 17.3532C8.10859 17.7004 7.92984 18.1613 7.88796 18.6263C7.86234 18.9101 7.89765 19.2017 7.9939 19.5013C8.18578 20.1001 8.55484 20.5782 9.05859 20.9422C9.50046 21.2616 9.98724 21.4183 10.5189 21.4122C11.0233 21.4066 11.4864 21.2172 11.8361 20.8619C11.844 20.8539 11.8545 20.8489 11.8658 20.8478C11.877 20.8467 11.8883 20.8494 11.8977 20.8557C12.0691 20.9694 12.2827 21.0847 12.5383 21.2016C12.736 21.2922 12.9198 21.3638 13.0898 21.4163C13.369 21.5026 13.5588 21.5558 13.6592 21.576C13.9517 21.6352 14.2355 21.6763 14.5105 21.6994C14.7421 21.719 14.9815 21.7187 15.2286 21.6985C15.895 21.6437 16.523 21.4785 17.1123 21.2029C17.2588 21.1345 17.4872 21.0017 17.7977 20.8044C18.0102 20.6694 18.2695 20.4382 18.3958 20.3232C18.4849 20.2419 18.6259 20.0807 18.8186 19.8394C19.0119 19.5971 19.1578 19.3277 19.2561 19.031C19.3488 18.7516 19.3855 18.448 19.3661 18.1201C19.3375 17.634 19.2059 17.1721 18.9711 16.7344C18.8242 16.4607 18.5983 16.1663 18.3327 15.9529C18.1547 15.8097 18.0441 15.7242 18.0008 15.6963C17.5939 15.4328 17.1494 15.3128 16.6673 15.3363C16.4736 15.3457 16.3248 15.4016 16.1636 15.4801C16.0009 15.5592 15.9032 15.686 15.8705 15.8604C15.87 15.8632 15.8686 15.8657 15.8665 15.8676C15.8645 15.8696 15.8618 15.8708 15.859 15.8711C15.8562 15.8714 15.8534 15.8708 15.8509 15.8694C15.8485 15.868 15.8466 15.8658 15.8455 15.8632C15.7727 15.7016 15.7833 15.4922 15.8289 15.3288C15.8597 15.2192 15.9137 15.1156 15.9908 15.0179C16.1189 14.8556 16.2716 14.7249 16.4489 14.6257C17.008 14.3135 17.5983 14.2679 18.2736 14.3226C18.3878 14.3319 18.5064 14.3533 18.6295 14.3866C18.7881 14.4295 18.9034 14.4654 18.9755 14.4941C19.4292 14.6752 19.8321 14.9418 20.1842 15.2941C20.4678 15.5779 20.7158 15.9187 20.9283 16.3166C21.1091 16.6554 21.2452 17.0265 21.3364 17.4301C21.3927 17.6792 21.4279 17.8742 21.442 18.0151C21.4711 18.301 21.4964 18.6576 21.4761 18.9629C21.4467 19.4056 21.3731 19.8267 21.2552 20.2263C21.2223 20.3376 21.1617 20.4529 21.1314 20.5538C21.1116 20.6194 21.0778 20.6999 21.0298 20.7951C20.8517 21.1492 20.6944 21.4132 20.558 21.5869C20.328 21.8801 20.0997 22.1204 19.8733 22.3079C19.3274 22.76 18.6864 23.0956 17.9502 23.3147C17.7364 23.3783 17.5421 23.4335 17.3673 23.4804C17.2505 23.5119 17.1589 23.5172 17.0605 23.5435C17.0069 23.5577 16.9295 23.5705 16.8283 23.5819C16.6627 23.6007 16.5033 23.6338 16.3411 23.6444C15.6842 23.6888 15.0045 23.686 14.3495 23.5913C14.0464 23.5476 13.8566 23.5178 13.7802 23.5019C13.4733 23.4378 13.2455 23.3935 13.0967 23.3691C12.9745 23.3491 12.807 23.4385 12.9308 23.5794C12.9764 23.6315 13.0145 23.668 13.0452 23.6888C13.4402 23.9578 13.7965 24.1666 14.1142 24.3154C14.5717 24.5293 15.0449 24.6993 15.5339 24.8254C15.9431 24.9308 16.2738 24.9953 16.5261 25.0188C16.769 25.0413 16.9317 25.0595 17.0142 25.0735C17.1119 25.0902 17.1933 25.0848 17.2583 25.0576" stroke="#052F64" stroke-width="2"/>
<path d="M15.9436 6.71631C15.8721 6.73193 15.7987 6.74443 15.7233 6.75381C15.6197 6.76673 15.5461 6.77777 15.5023 6.78693C14.3134 7.03673 13.2029 7.49683 12.1708 8.16725C10.7698 9.07725 9.59578 10.3422 8.91985 11.8697C8.50485 12.8072 8.27453 13.8008 8.22891 14.8504C8.19703 15.5885 8.2386 16.2904 8.40578 16.9963C8.42922 17.0957 8.46485 17.1829 8.48766 17.2616C8.49222 17.2775 8.49261 17.2944 8.48878 17.3105C8.48495 17.3266 8.47702 17.3414 8.46578 17.3535C8.15141 17.6913 7.99016 18.0988 7.92672 18.5529C7.86953 18.9616 7.97047 19.4404 8.14141 19.8063C8.59578 20.7785 9.61953 21.4891 10.7142 21.3672C11.1555 21.3181 11.5296 21.1346 11.8367 20.8169C11.8428 20.8106 11.8509 20.8066 11.8596 20.8058C11.8683 20.8049 11.8771 20.8072 11.8842 20.8122C12.0042 20.8954 12.1316 20.9714 12.2664 21.0404C12.84 21.3331 13.4485 21.5265 14.092 21.6207C14.7479 21.7167 15.3841 21.6936 16.0008 21.5513C17.117 21.2941 18.1177 20.711 18.818 19.7951C19.2044 19.2901 19.3756 18.7228 19.3314 18.0932C19.2845 17.4236 19.0592 16.8336 18.6555 16.3232C18.5903 16.2409 18.492 16.1391 18.3608 16.0179C17.8561 15.5519 17.2252 15.2944 16.5345 15.3838C16.4304 15.3973 16.3161 15.434 16.1917 15.4938C15.977 15.5969 15.9508 15.7257 15.8648 15.9166C15.8632 15.9203 15.8606 15.9234 15.8572 15.9256C15.8538 15.9278 15.8499 15.9289 15.8459 15.9288C15.8419 15.9287 15.838 15.9275 15.8347 15.9252C15.8314 15.9229 15.8288 15.9197 15.8273 15.916C15.693 15.5857 15.7777 15.2172 16.0142 14.9488C16.1146 14.8349 16.1974 14.7556 16.2627 14.711C16.8589 14.3032 17.5345 14.2226 18.2527 14.2885C18.54 14.315 18.8271 14.3933 19.1142 14.5235C19.7769 14.8243 20.3122 15.2861 20.7202 15.9088C21.4664 17.0479 21.6673 18.4626 21.397 19.7872C21.2664 20.4282 20.9983 21.0185 20.6286 21.5335C20.083 22.2935 19.2711 22.8613 18.3798 23.1997C17.4651 23.5472 16.5182 23.7173 15.5392 23.7101C14.939 23.7057 14.3541 23.6476 13.7845 23.5357C13.3358 23.4478 13.1107 23.4037 13.1092 23.4035C13.0498 23.396 13.0023 23.3985 12.9667 23.411C12.948 23.4174 12.9322 23.43 12.9224 23.4463C12.9125 23.4627 12.9094 23.4816 12.9136 23.4994C12.9317 23.5757 13.0652 23.6719 13.1352 23.7191C13.6 24.0314 14.0858 24.2866 14.5927 24.4847C15.445 24.8181 16.3335 25.009 17.2583 25.0576" stroke="#80848E" stroke-width="2"/>
<path d="M16.008 6.82568C15.9559 6.87902 15.9157 6.91433 15.8874 6.93162C15.5601 7.13204 15.268 7.32443 15.0111 7.50881C14.6159 7.79235 14.2369 8.11891 13.8742 8.4885C12.9908 9.38912 12.3467 10.4872 11.9474 11.6785C11.7369 12.3066 11.6078 12.9725 11.5599 13.676C11.5267 14.1627 11.5397 14.6276 11.5986 15.0707C11.7305 16.0626 12.0652 17.0263 12.6092 17.8604C12.8478 18.2262 13.116 18.5412 13.4139 18.8054C13.9239 19.2579 14.5096 19.4963 15.1824 19.4582C15.4703 19.4419 15.7264 19.394 15.9508 19.3144C16.5416 19.1044 17.0451 18.7654 17.4611 18.2972C17.4625 18.2957 17.4634 18.2936 17.4635 18.2915C17.4637 18.2894 17.4631 18.2873 17.462 18.2855C17.4608 18.2837 17.4591 18.2823 17.457 18.2817C17.455 18.281 17.4528 18.2809 17.4508 18.2816C17.3939 18.2994 17.3317 18.3144 17.2802 18.3344C17.0029 18.4423 16.7566 18.5196 16.5414 18.5663C15.9033 18.704 15.3026 18.6214 14.7392 18.3185C14.2411 18.0504 13.8849 17.6841 13.5699 17.2101C13.278 16.7707 13.1039 16.2566 13.0024 15.7347C12.9509 15.4697 12.928 15.1755 12.9336 14.8519C12.9499 13.9009 13.1734 12.9945 13.6042 12.1329C13.934 11.4729 14.3558 10.8842 14.8696 10.3669C15.2148 10.019 15.5998 9.70506 16.0246 9.42506C16.4493 9.14485 16.8917 8.91912 17.3517 8.74787C18.8796 8.17943 20.7042 8.19475 22.2074 8.87881C23.3624 9.40443 24.3136 10.3044 24.9839 11.3947C25.5231 12.2716 25.9102 13.2197 26.1452 14.2391C26.1918 14.441 26.2356 14.6554 26.2764 14.8822C26.2911 14.9635 26.3252 15.1697 26.2392 15.211C26.1517 15.2529 26.0339 15.1144 25.993 15.0472C25.8636 14.8362 25.7227 14.61 25.5702 14.3685C25.1731 13.7402 24.742 13.1768 24.2767 12.6785C23.3211 11.6551 22.0777 10.9322 20.6858 10.756C20.366 10.7156 20.1276 10.6954 19.9705 10.6954C19.2588 10.6954 18.5571 10.8007 17.8652 11.0113C17.4206 11.1467 16.9842 11.3403 16.5561 11.5919C16.1278 11.8438 15.7584 12.1181 15.448 12.4147C14.7664 13.0663 14.1746 13.8522 14.008 14.8041C13.9683 15.0301 13.9721 15.2247 13.9992 15.4635C14.0019 15.4881 14.0118 15.5039 14.0289 15.511C14.0314 15.5121 14.034 15.5126 14.0367 15.5126C14.0394 15.5126 14.042 15.5121 14.0445 15.511C14.0469 15.51 14.0491 15.5084 14.051 15.5065C14.0528 15.5045 14.0543 15.5023 14.0552 15.4997C14.105 15.367 14.1718 15.2297 14.2558 15.0879C14.7489 14.2557 15.513 13.5832 16.3567 13.1266C16.6944 12.9439 17.0243 12.8064 17.3464 12.7141C17.9971 12.5272 18.6696 12.4582 19.3396 12.5004C19.6285 12.5185 19.937 12.5691 20.2649 12.6522C21.0563 12.8531 21.7642 13.2025 22.3886 13.7004C22.8792 14.0916 23.2711 14.5491 23.5911 15.0747C24.0861 15.8881 24.3771 16.7657 24.4639 17.7076C24.4874 17.9622 24.5005 18.0591 24.5002 18.2857C24.4998 18.5686 24.4857 18.8442 24.458 19.1126C24.3221 20.4279 23.7874 21.6566 22.9471 22.671C22.4577 23.2616 21.8783 23.7474 21.2089 24.1282C20.4039 24.5861 19.5346 24.8727 18.6008 24.9879C18.4227 25.01 18.243 25.0357 18.0617 25.0651" stroke="#80848E" stroke-width="2"/>
<path d="M32 0V32H0V0H32ZM6.38844 7.76969C5.37562 8.98625 4.61938 10.3941 4.16469 11.8972C3.9276 12.6803 3.76313 13.5203 3.67125 14.4172C3.62031 14.9153 3.61844 15.4484 3.62562 15.93C3.64042 16.9385 3.79937 17.9394 4.1025 18.9325C4.21625 19.3056 4.29635 19.5536 4.34281 19.6766C4.5026 20.1026 4.67302 20.496 4.85406 20.8569C5.93625 23.015 7.63469 24.8506 9.70719 26.0987C10.9009 26.8175 12.2656 27.3166 13.6325 27.5844C13.6765 27.5929 13.8766 27.6281 14.2328 27.69C14.3975 27.7184 14.5512 27.7228 14.7156 27.7481C14.8069 27.7621 14.9279 27.7744 15.0787 27.785C15.6275 27.8242 16.0955 27.8347 16.4828 27.8166C16.9618 27.7943 17.417 27.7508 17.8484 27.6863C18.5941 27.575 19.3338 27.3978 20.0547 27.1472C20.2847 27.0674 20.4318 27.0152 20.4959 26.9906C21.005 26.7966 21.5959 26.5228 22.0734 26.2488C22.9166 25.765 23.6715 25.2159 24.3381 24.6016C24.6719 24.2939 24.9668 23.9989 25.2228 23.7166C26.3099 22.5195 27.1249 21.1741 27.6678 19.6803C28.7206 16.7828 28.5916 13.5431 27.3913 10.7106C27.1269 10.0865 26.7656 9.41865 26.3075 8.70719C26.1875 8.52052 26.0386 8.31156 25.8609 8.08031C25.6528 7.80969 25.49 7.60813 25.3725 7.47563C24.6723 6.68792 23.8811 5.99615 22.9991 5.40031C21.5589 4.42802 19.9879 3.78406 18.2862 3.46844C17.9719 3.4101 17.6741 3.36885 17.3928 3.34469C16.9707 3.30802 16.5485 3.28729 16.1262 3.2825C15.4809 3.275 14.7775 3.32813 14.1512 3.41656C13.19 3.55219 12.2253 3.79844 11.3191 4.17063C10.9745 4.31188 10.6818 4.4424 10.4409 4.56219C9.62802 4.96656 8.86573 5.45708 8.15406 6.03375C7.97948 6.175 7.79406 6.33167 7.59781 6.50375C7.47656 6.61021 7.25115 6.83094 6.92156 7.16594C6.79177 7.2976 6.61406 7.49885 6.38844 7.76969Z" fill="white"/>
<path d="M6.38844 7.76969C6.61406 7.49886 6.79177 7.29761 6.92156 7.16594C7.25115 6.83094 7.47656 6.61021 7.59781 6.50375C7.79406 6.33167 7.97948 6.175 8.15406 6.03375C8.86573 5.45708 9.62802 4.96656 10.4409 4.56219C10.6818 4.4424 10.9745 4.31188 11.3191 4.17063C12.2253 3.79844 13.19 3.55219 14.1513 3.41656C14.7775 3.32813 15.4809 3.275 16.1263 3.2825C16.5485 3.28729 16.9707 3.30802 17.3928 3.34469C17.6741 3.36886 17.9719 3.41011 18.2863 3.46844C19.9879 3.78406 21.5589 4.42802 22.9991 5.40031C23.8811 5.99615 24.6723 6.68792 25.3725 7.47563C25.49 7.60813 25.6528 7.80969 25.8609 8.08031C26.0386 8.31156 26.1875 8.52052 26.3075 8.70719C26.7656 9.41865 27.1269 10.0865 27.3913 10.7106C28.5916 13.5431 28.7206 16.7828 27.6678 19.6803C27.1249 21.1741 26.3099 22.5195 25.2228 23.7166C24.9668 23.9989 24.6719 24.2939 24.3381 24.6016C23.6715 25.2159 22.9166 25.765 22.0734 26.2488C21.5959 26.5228 21.005 26.7966 20.4959 26.9906C20.4318 27.0152 20.2847 27.0674 20.0547 27.1472C19.3338 27.3978 18.5941 27.575 17.8484 27.6863C17.417 27.7508 16.9618 27.7943 16.4828 27.8166C16.0955 27.8347 15.6275 27.8242 15.0788 27.785C14.9279 27.7744 14.8069 27.7621 14.7156 27.7481C14.5513 27.7228 14.3975 27.7184 14.2328 27.69C13.8766 27.6281 13.6765 27.5929 13.6325 27.5844C12.2656 27.3166 10.9009 26.8175 9.70719 26.0988C7.63469 24.8506 5.93625 23.015 4.85406 20.8569C4.67302 20.496 4.50261 20.1026 4.34281 19.6766C4.29636 19.5536 4.21625 19.3056 4.1025 18.9325C3.79938 17.9394 3.64042 16.9385 3.62563 15.93C3.61844 15.4484 3.62031 14.9153 3.67125 14.4172C3.76313 13.5203 3.92761 12.6803 4.16469 11.8972C4.61938 10.3941 5.37563 8.98625 6.38844 7.76969ZM6.41344 7.78906C5.40313 9.00281 4.64875 10.4072 4.19531 11.9066C3.95906 12.6878 3.79511 13.5258 3.70344 14.4206C3.65281 14.9175 3.65094 15.4491 3.65813 15.9297C3.67292 16.9357 3.83156 17.9341 4.13406 18.9247C4.2476 19.2968 4.3275 19.5442 4.37375 19.6669C4.53333 20.0919 4.70344 20.4843 4.88406 20.8441C5.96375 22.9969 7.65813 24.8278 9.72563 26.0728C10.9166 26.7897 12.2778 27.2872 13.6413 27.5544C13.6852 27.5629 13.8849 27.598 14.2403 27.6597C14.4044 27.6881 14.5578 27.6922 14.7219 27.7175C14.8129 27.7315 14.9336 27.7438 15.0841 27.7544C15.6316 27.7933 16.0984 27.8038 16.4847 27.7856C16.9624 27.7633 17.4165 27.72 17.8469 27.6556C18.5906 27.5444 19.3284 27.3678 20.0478 27.1175C20.2772 27.0379 20.4239 26.9859 20.4878 26.9616C20.9956 26.7678 21.585 26.4947 22.0613 26.2213C22.9023 25.7385 23.6553 25.1907 24.3203 24.5778C24.6532 24.2709 24.9474 23.9767 25.2028 23.695C26.287 22.5008 27.0998 21.1586 27.6413 19.6684C28.6913 16.7781 28.5622 13.5463 27.3647 10.7209C27.1009 10.0982 26.7405 9.43208 26.2834 8.7225C26.1636 8.53625 26.0151 8.32781 25.8378 8.09719C25.6303 7.82719 25.4679 7.62615 25.3506 7.49406C24.6521 6.70844 23.8628 6.01844 22.9828 5.42406C21.5461 4.45427 19.9791 3.81208 18.2816 3.4975C17.9678 3.43938 17.6707 3.39823 17.3903 3.37406C16.9693 3.33761 16.5481 3.31698 16.1269 3.31219C15.4831 3.30469 14.7813 3.35781 14.1566 3.44594C13.1978 3.58125 12.2356 3.82719 11.3316 4.19844C10.9878 4.33948 10.6958 4.46969 10.4556 4.58906C9.64479 4.99261 8.88438 5.48198 8.17438 6.05719C8.00021 6.19823 7.81531 6.35458 7.61969 6.52625C7.49865 6.6325 7.27375 6.85271 6.945 7.18688C6.81563 7.31813 6.63844 7.51886 6.41344 7.78906Z" fill="#00081C"/>
<path d="M6.41341 7.78904C6.63841 7.51883 6.8156 7.3181 6.94498 7.18685C7.27373 6.85269 7.49862 6.63248 7.61966 6.52623C7.81529 6.35456 8.00018 6.19821 8.17435 6.05716C8.88435 5.48196 9.64477 4.99258 10.4556 4.58904C10.6958 4.46966 10.9878 4.33946 11.3315 4.19841C12.2356 3.82716 13.1978 3.58123 14.1565 3.44591C14.7812 3.35779 15.4831 3.30466 16.1269 3.31216C16.5481 3.31696 16.9692 3.33758 17.3903 3.37404C17.6707 3.39821 17.9678 3.43935 18.2815 3.49748C19.979 3.81206 21.5461 4.45425 22.9828 5.42404C23.8628 6.01841 24.6521 6.70841 25.3506 7.49404C25.4679 7.62612 25.6303 7.82716 25.8378 8.09716C26.0151 8.32779 26.1636 8.53623 26.2834 8.72248C26.7405 9.43206 27.1009 10.0982 27.3647 10.7209C28.5622 13.5462 28.6912 16.7781 27.6412 19.6684C27.0998 21.1586 26.287 22.5008 25.2028 23.695C24.9474 23.9766 24.6532 24.2709 24.3203 24.5778C23.6553 25.1907 22.9023 25.7385 22.0612 26.2212C21.585 26.4947 20.9956 26.7678 20.4878 26.9615C20.4238 26.9859 20.2772 27.0379 20.0478 27.1175C19.3284 27.3678 18.5906 27.5444 17.8469 27.6556C17.4164 27.72 16.9624 27.7633 16.4847 27.7856C16.0984 27.8037 15.6315 27.7933 15.084 27.7544C14.9336 27.7437 14.8129 27.7314 14.7219 27.7175C14.5578 27.6922 14.4044 27.6881 14.2403 27.6597C13.8849 27.598 13.6852 27.5629 13.6412 27.5544C12.2778 27.2872 10.9165 26.7897 9.7256 26.0728C7.6581 24.8278 5.96373 22.9969 4.88404 20.844C4.70341 20.4842 4.53331 20.0919 4.37373 19.6669C4.32748 19.5441 4.24758 19.2967 4.13404 18.9247C3.83154 17.934 3.67289 16.9357 3.6581 15.9297C3.65091 15.449 3.65279 14.9175 3.70341 14.4206C3.79508 13.5258 3.95904 12.6878 4.19529 11.9065C4.64873 10.4072 5.4031 9.00279 6.41341 7.78904ZM16.8809 24.3394L17.6844 24.3469C18.0069 24.3444 18.3267 24.3099 18.644 24.2434C18.9599 24.1772 19.2209 24.1128 19.4272 24.0503C19.8176 23.932 20.2309 23.7605 20.6672 23.5359C20.8282 23.4532 21.0001 23.351 21.1828 23.2294C21.4338 23.0623 21.5978 22.9476 21.6747 22.8853C21.8738 22.7238 22.0589 22.5557 22.23 22.3809C22.3891 22.2182 22.5412 22.0417 22.6862 21.8515C22.8766 21.6017 23.013 21.4126 23.0953 21.284C23.3784 20.8415 23.6169 20.3445 23.8106 19.7928C23.9206 19.4803 24.0028 19.1212 24.055 18.8162C24.101 18.5494 24.1337 18.2511 24.1531 17.9215C24.171 17.6186 24.1697 17.3851 24.149 17.2209C24.1215 17.0006 24.1062 16.8006 24.0715 16.5928C23.998 16.152 23.8791 15.713 23.715 15.2759C23.6504 15.1036 23.5707 14.9285 23.4759 14.7506C23.2972 14.415 23.1044 14.1106 22.8975 13.8375C22.5954 13.4387 22.2269 13.0856 21.7919 12.7781C21.58 12.6283 21.3801 12.5027 21.1922 12.4012C20.8167 12.1985 20.3873 12.0319 19.9037 11.9012C19.7731 11.8659 19.6653 11.8522 19.5281 11.8219C19.1287 11.7328 18.7028 11.7231 18.2634 11.7428C18.0644 11.7519 17.8856 11.7831 17.7119 11.8037C17.4281 11.8375 17.1157 11.9122 16.7747 12.0278C16.2505 12.2059 15.751 12.4713 15.2762 12.824C14.861 13.1324 14.5012 13.4754 14.1969 13.8531C13.9662 14.1397 13.7919 14.4662 13.6609 14.7228C13.6603 14.7243 13.6591 14.7255 13.6577 14.7262C13.6563 14.727 13.6546 14.7272 13.6531 14.727C13.6515 14.7267 13.65 14.7259 13.649 14.7246C13.6479 14.7234 13.6473 14.7219 13.6472 14.7203C13.6178 14.4459 13.6349 14.1852 13.6984 13.9381C13.7505 13.7348 13.7981 13.5801 13.8412 13.474C13.8775 13.3849 13.9494 13.2302 14.0569 13.01C14.1062 12.9087 14.2022 12.7635 14.3447 12.5744C14.3501 12.5673 14.3549 12.5598 14.359 12.5519C14.4453 12.3972 14.5412 12.3128 14.6506 12.1819C15.0289 11.7277 15.4874 11.3339 16.0259 11.0006C16.2647 10.8527 16.5047 10.7216 16.7459 10.6075C16.9726 10.5002 17.2285 10.404 17.5137 10.319C18.0723 10.1522 18.625 10.0532 19.1719 10.0222C19.4583 10.0061 19.7045 10.0082 19.9103 10.0284C20.0576 10.0428 20.1417 10.0507 20.1628 10.0522C20.3297 10.0625 20.4612 10.0965 20.6165 10.1172C20.6724 10.1247 20.7397 10.1375 20.8184 10.1556C21.5309 10.3202 22.1916 10.6164 22.8006 11.0444C23.2233 11.3412 23.608 11.6802 23.9547 12.0612C24.5872 12.7556 25.1075 13.5181 25.5762 14.3297C25.6369 14.4347 25.7244 14.5309 25.8612 14.5165C25.8729 14.5153 25.8839 14.5103 25.8922 14.5022C25.9284 14.4667 25.9465 14.4303 25.9465 14.3928C25.9459 14.244 25.9333 14.1103 25.9087 13.9915C25.8094 13.5115 25.7065 13.1035 25.6003 12.7675C25.329 11.9087 24.9441 11.1086 24.4456 10.3672C24.2623 10.0947 24.0206 9.7955 23.7206 9.46966C23.5359 9.26966 23.2631 9.03904 23.0862 8.89748C22.3233 8.28748 21.459 7.89164 20.4934 7.70998C20.2607 7.66602 20.039 7.63352 19.8284 7.61248C19.7553 7.60519 19.6977 7.60206 19.6556 7.6031C19.5031 7.60654 19.3622 7.58498 19.2212 7.59029C18.9387 7.6006 18.6672 7.59998 18.4084 7.64748C18.3778 7.65289 18.3073 7.66362 18.1969 7.67966C17.5598 7.77112 16.9285 7.97716 16.3031 8.29779C15.9441 8.48175 15.6119 8.68779 15.3062 8.91591C14.9464 9.18446 14.6042 9.48883 14.2797 9.82904C14.1806 9.93279 14.0931 10.0603 14.0006 10.1619C13.9406 10.2281 13.8737 10.3133 13.8 10.4175C13.6604 10.6148 13.5797 10.7314 13.5578 10.7675C13.2803 11.225 13.0253 11.729 12.8469 12.2515C12.5819 13.0272 12.4806 13.8259 12.5431 14.6478C12.5773 15.0953 12.7049 15.5705 12.9259 16.0734C13.0309 16.3122 13.2153 16.589 13.3694 16.7869C13.8265 17.3747 14.509 17.834 15.2512 17.9215C15.5737 17.9595 15.8756 17.946 16.1569 17.8812C16.4421 17.8156 16.6963 17.7337 16.9197 17.6356C16.9395 17.6269 16.9614 17.6234 16.9856 17.6253C16.9872 17.6254 16.9887 17.626 16.99 17.6269C16.9912 17.6278 16.9922 17.6291 16.9928 17.6306C16.9934 17.632 16.9935 17.6336 16.9933 17.6352C16.993 17.6367 16.9923 17.6382 16.9912 17.6394C16.5875 18.0723 16.1035 18.3851 15.5394 18.5778C15.3787 18.6326 15.2313 18.6674 15.0972 18.6822C14.8445 18.7099 14.5984 18.712 14.359 18.6884C13.7806 18.6319 13.224 18.274 12.8381 17.8503C12.6594 17.654 12.5554 17.5365 12.5262 17.4978C12.1512 17.0024 11.8716 16.5087 11.6875 16.0169C11.6327 15.8706 11.567 15.6812 11.4903 15.4487C11.4607 15.3591 11.3973 15.0951 11.3 14.6565C11.2921 14.6205 11.2873 14.5827 11.2856 14.5431C11.2819 14.4481 11.2575 14.3503 11.2465 14.2587C11.1967 13.8508 11.1865 13.4176 11.2159 12.959C11.2851 11.8792 11.5589 10.8587 12.0375 9.89748C12.1587 9.65373 12.229 9.51539 12.2484 9.48248C12.4709 9.10341 12.6978 8.74248 12.9672 8.41123C13.1067 8.23998 13.2208 8.10706 13.3094 8.01248C13.5622 7.74279 13.8694 7.43779 14.2015 7.16716C14.4438 6.96987 14.5985 6.84696 14.6656 6.79841C14.8504 6.66466 15.1388 6.47664 15.5309 6.23435C15.5942 6.19519 15.6275 6.15289 15.6306 6.10748C15.6448 6.07602 15.6233 6.03956 15.5662 5.9981C15.3069 6.00331 15.0034 6.05383 14.6559 6.14966C14.4211 6.21446 14.1905 6.28237 13.964 6.35341C13.868 6.38341 13.7776 6.41623 13.6928 6.45185C13.6867 6.45435 13.5975 6.4905 13.425 6.56029C13.0021 6.73175 12.5637 6.95196 12.11 7.22091C11.9916 7.29091 11.8992 7.34925 11.8328 7.39591C11.6059 7.55435 11.3897 7.68904 11.1609 7.86404C10.7392 8.18675 10.3452 8.54519 9.97873 8.93935C9.15019 9.8306 8.55373 10.8515 8.18935 12.0022C8.14081 12.1557 8.09008 12.3463 8.03716 12.574C7.97133 12.8582 7.93123 13.0512 7.91685 13.1531C7.80956 13.9177 7.78394 14.6374 7.83998 15.3122C7.86144 15.5705 7.91654 15.9033 8.00529 16.3106C8.02248 16.3897 8.0606 16.4665 8.07685 16.5394C8.08062 16.5561 8.08026 16.5736 8.0758 16.5902C8.07134 16.6069 8.06291 16.6222 8.05123 16.635C7.73123 16.9822 7.55248 17.4431 7.5106 17.9081C7.48498 18.1919 7.52029 18.4835 7.61654 18.7831C7.80841 19.3819 8.17748 19.86 8.68123 20.224C9.1231 20.5434 9.60987 20.7001 10.1415 20.694C10.6459 20.6884 11.109 20.499 11.4587 20.1437C11.4667 20.1357 11.4772 20.1307 11.4884 20.1296C11.4996 20.1284 11.5109 20.1312 11.5203 20.1375C11.6917 20.2512 11.9053 20.3665 12.1609 20.4834C12.3586 20.574 12.5425 20.6456 12.7125 20.6981C12.9916 20.7844 13.1814 20.8376 13.2819 20.8578C13.5744 20.917 13.8581 20.9581 14.1331 20.9812C14.3648 21.0008 14.6041 21.0005 14.8512 20.9803C15.5177 20.9255 16.1456 20.7603 16.735 20.4847C16.8814 20.4163 17.1099 20.2835 17.4203 20.0862C17.6328 19.9512 17.8922 19.72 18.0184 19.605C18.1076 19.5237 18.2485 19.3625 18.4412 19.1212C18.6346 18.8789 18.7804 18.6095 18.8787 18.3128C18.9714 18.0334 19.0081 17.7298 18.9887 17.4019C18.9602 16.9158 18.8285 16.4539 18.5937 16.0162C18.4469 15.7425 18.2209 15.4481 17.9553 15.2347C17.7774 15.0915 17.6667 15.006 17.6234 14.9781C17.2165 14.7146 16.7721 14.5946 16.29 14.6181C16.0962 14.6275 15.9475 14.6834 15.7862 14.7619C15.6235 14.841 15.5258 14.9678 15.4931 15.1422C15.4926 15.1449 15.4912 15.1475 15.4892 15.1494C15.4871 15.1514 15.4845 15.1526 15.4817 15.1529C15.4788 15.1532 15.476 15.1526 15.4736 15.1512C15.4711 15.1498 15.4692 15.1476 15.4681 15.145C15.3953 14.9834 15.4059 14.774 15.4515 14.6106C15.4824 14.501 15.5363 14.3974 15.6134 14.2997C15.7415 14.1374 15.8942 14.0066 16.0715 13.9075C16.6306 13.5953 17.2209 13.5497 17.8962 13.6044C18.0104 13.6137 18.129 13.6351 18.2522 13.6684C18.4107 13.7113 18.526 13.7472 18.5981 13.7759C19.0519 13.957 19.4548 14.2236 19.8069 14.5759C20.0904 14.8597 20.3384 15.2005 20.5509 15.5984C20.7317 15.9372 20.8678 16.3083 20.959 16.7119C21.0153 16.961 21.0505 17.156 21.0647 17.2969C21.0937 17.5828 21.119 17.9394 21.0987 18.2447C21.0694 18.6874 20.9957 19.1085 20.8778 19.5081C20.845 19.6194 20.7844 19.7347 20.754 19.8356C20.7342 19.9012 20.7004 19.9816 20.6525 20.0769C20.4744 20.431 20.3171 20.695 20.1806 20.8687C19.9506 21.1619 19.7224 21.4022 19.4959 21.5897C18.9501 22.0417 18.309 22.3774 17.5728 22.5965C17.359 22.6601 17.1648 22.7153 16.99 22.7622C16.8731 22.7937 16.7815 22.799 16.6831 22.8253C16.6296 22.8395 16.5522 22.8523 16.4509 22.8637C16.2853 22.8825 16.1259 22.9156 15.9637 22.9262C15.3069 22.9706 14.6272 22.9678 13.9722 22.8731C13.669 22.8294 13.4792 22.7996 13.4028 22.7837C13.0959 22.7196 12.8681 22.6753 12.7194 22.6509C12.5972 22.6309 12.4297 22.7203 12.5534 22.8612C12.599 22.9133 12.6372 22.9498 12.6678 22.9706C13.0628 23.2396 13.4191 23.4484 13.7369 23.5972C14.1944 23.8111 14.6676 23.9811 15.1565 24.1072C15.5657 24.2126 15.8964 24.2771 16.1487 24.3006C16.3916 24.3231 16.5544 24.3413 16.6369 24.3553C16.7346 24.372 16.8159 24.3666 16.8809 24.3394Z" fill="#0A56AC"/>
<path d="M15.5661 5.99811C15.4947 6.01373 15.4213 6.02623 15.3458 6.03561C15.2423 6.04852 15.1686 6.05957 15.1249 6.06873C13.9359 6.31852 12.8254 6.77863 11.7933 7.44905C10.3924 8.35905 9.21834 9.62405 8.5424 11.1515C8.1274 12.089 7.89709 13.0826 7.85146 14.1322C7.81959 14.8703 7.86115 15.5722 8.02834 16.2781C8.05177 16.3775 8.0874 16.4647 8.11021 16.5434C8.11478 16.5593 8.11516 16.5762 8.11133 16.5923C8.1075 16.6084 8.09958 16.6232 8.08834 16.6353C7.77396 16.9731 7.61271 17.3806 7.54927 17.8347C7.49209 18.2434 7.59302 18.7222 7.76396 19.0881C8.21834 20.0603 9.24209 20.7709 10.3368 20.649C10.778 20.5999 11.1522 20.4164 11.4593 20.0987C11.4653 20.0924 11.4734 20.0884 11.4822 20.0876C11.4909 20.0867 11.4996 20.089 11.5068 20.094C11.6268 20.1772 11.7542 20.2532 11.889 20.3222C12.4625 20.6149 13.071 20.8083 13.7146 20.9025C14.3704 20.9985 15.0067 20.9754 15.6233 20.8331C16.7396 20.5759 17.7402 19.9928 18.4405 19.0769C18.827 18.5719 18.9981 18.0046 18.954 17.375C18.9071 16.7054 18.6818 16.1154 18.278 15.605C18.2128 15.5227 18.1146 15.4209 17.9833 15.2997C17.4786 14.8337 16.8477 14.5762 16.1571 14.6656C16.0529 14.6791 15.9386 14.7158 15.8143 14.7756C15.5996 14.8787 15.5733 15.0075 15.4874 15.1984C15.4858 15.2021 15.4831 15.2052 15.4798 15.2074C15.4764 15.2096 15.4725 15.2107 15.4684 15.2106C15.4644 15.2105 15.4605 15.2093 15.4572 15.207C15.4539 15.2047 15.4514 15.2015 15.4499 15.1978C15.3155 14.8675 15.4002 14.499 15.6368 14.2306C15.7372 14.1166 15.82 14.0374 15.8852 13.9928C16.4815 13.585 17.1571 13.5044 17.8752 13.5703C18.1625 13.5968 18.4497 13.6751 18.7368 13.8053C19.3995 14.1061 19.9348 14.5679 20.3427 15.1906C21.089 16.3297 21.2899 17.7444 21.0196 19.069C20.889 19.71 20.6208 20.3003 20.2511 20.8153C19.7055 21.5753 18.8936 22.1431 18.0024 22.4815C17.0876 22.829 16.1407 22.9991 15.1618 22.9919C14.5616 22.9875 13.9767 22.9294 13.4071 22.8175C12.9583 22.7296 12.7332 22.6855 12.7318 22.6853C12.6724 22.6778 12.6249 22.6803 12.5893 22.6928C12.5705 22.6992 12.5547 22.7118 12.5449 22.7281C12.5351 22.7445 12.532 22.7634 12.5361 22.7812C12.5543 22.8575 12.6877 22.9537 12.7577 23.0009C13.2225 23.3132 13.7083 23.5684 14.2152 23.7665C15.0675 24.0999 15.956 24.2908 16.8808 24.3394C16.8158 24.3666 16.7345 24.372 16.6368 24.3553C16.5543 24.3413 16.3916 24.3231 16.1486 24.3006C15.8964 24.2771 15.5656 24.2126 15.1565 24.1072C14.6675 23.9811 14.1943 23.8111 13.7368 23.5972C13.4191 23.4484 13.0627 23.2396 12.6677 22.9706C12.6371 22.9498 12.599 22.9133 12.5533 22.8612C12.4296 22.7203 12.5971 22.6309 12.7193 22.6509C12.868 22.6753 13.0958 22.7196 13.4027 22.7837C13.4792 22.7996 13.669 22.8294 13.9721 22.8731C14.6271 22.9678 15.3068 22.9706 15.9636 22.9262C16.1258 22.9156 16.2852 22.8825 16.4508 22.8637C16.5521 22.8523 16.6295 22.8395 16.683 22.8253C16.7815 22.799 16.873 22.7937 16.9899 22.7622C17.1647 22.7153 17.359 22.6601 17.5727 22.5965C18.309 22.3774 18.95 22.0418 19.4958 21.5897C19.7223 21.4022 19.9505 21.1619 20.1805 20.8687C20.317 20.695 20.4743 20.431 20.6524 20.0769C20.7003 19.9817 20.7342 19.9012 20.754 19.8356C20.7843 19.7347 20.8449 19.6194 20.8777 19.5081C20.9956 19.1085 21.0693 18.6874 21.0986 18.2447C21.119 17.9394 21.0936 17.5828 21.0646 17.2969C21.0504 17.156 21.0152 16.961 20.959 16.7119C20.8677 16.3083 20.7317 15.9372 20.5508 15.5984C20.3383 15.2005 20.0903 14.8597 19.8068 14.5759C19.4547 14.2236 19.0518 13.957 18.598 13.7759C18.5259 13.7472 18.4106 13.7113 18.2521 13.6684C18.129 13.6351 18.0103 13.6137 17.8961 13.6044C17.2208 13.5497 16.6305 13.5953 16.0715 13.9075C15.8942 14.0066 15.7415 14.1374 15.6133 14.2997C15.5363 14.3974 15.4823 14.501 15.4515 14.6106C15.4058 14.774 15.3952 14.9834 15.468 15.145C15.4691 15.1476 15.471 15.1498 15.4735 15.1512C15.4759 15.1526 15.4788 15.1532 15.4816 15.1529C15.4844 15.1526 15.487 15.1514 15.4891 15.1494C15.4911 15.1475 15.4925 15.145 15.493 15.1422C15.5257 14.9678 15.6234 14.841 15.7861 14.7619C15.9474 14.6834 16.0961 14.6275 16.2899 14.6181C16.772 14.5946 17.2165 14.7146 17.6233 14.9781C17.6667 15.006 17.7773 15.0915 17.9552 15.2347C18.2208 15.4481 18.4468 15.7425 18.5936 16.0162C18.8284 16.4539 18.9601 16.9158 18.9886 17.4019C19.008 17.7298 18.9714 18.0334 18.8786 18.3128C18.7803 18.6095 18.6345 18.8789 18.4411 19.1212C18.2484 19.3625 18.1075 19.5237 18.0183 19.605C17.8921 19.72 17.6327 19.9512 17.4202 20.0862C17.1098 20.2835 16.8814 20.4163 16.7349 20.4847C16.1455 20.7603 15.5176 20.9255 14.8511 20.9803C14.6041 21.0005 14.3647 21.0008 14.133 20.9812C13.858 20.9581 13.5743 20.917 13.2818 20.8578C13.1814 20.8376 12.9916 20.7844 12.7124 20.6981C12.5424 20.6456 12.3585 20.574 12.1608 20.4834C11.9052 20.3665 11.6917 20.2512 11.5202 20.1375C11.5108 20.1312 11.4995 20.1284 11.4883 20.1296C11.4771 20.1307 11.4666 20.1357 11.4586 20.1437C11.109 20.499 10.6458 20.6884 10.1415 20.694C9.60979 20.7001 9.12302 20.5434 8.68115 20.224C8.1774 19.86 7.80834 19.3819 7.61646 18.7831C7.52021 18.4835 7.4849 18.1919 7.51052 17.9081C7.5524 17.4431 7.73115 16.9822 8.05115 16.635C8.06283 16.6222 8.07126 16.6069 8.07572 16.5902C8.08018 16.5736 8.08054 16.5561 8.07677 16.5394C8.06052 16.4665 8.0224 16.3897 8.00521 16.3106C7.91646 15.9033 7.86136 15.5705 7.8399 15.3122C7.78386 14.6374 7.80948 13.9177 7.91677 13.1531C7.93115 13.0512 7.97125 12.8582 8.03709 12.574C8.09 12.3463 8.14073 12.1557 8.18927 12.0022C8.55365 10.8515 9.15011 9.83061 9.97865 8.93936C10.3451 8.54519 10.7392 8.18675 11.1608 7.86405C11.3896 7.68905 11.6058 7.55436 11.8327 7.39592C11.8992 7.34925 11.9916 7.29092 12.1099 7.22092C12.5636 6.95196 13.002 6.73175 13.4249 6.5603C13.5974 6.4905 13.6867 6.45436 13.6927 6.45186C13.7775 6.41623 13.8679 6.38342 13.964 6.35342C14.1904 6.28238 14.421 6.21446 14.6558 6.14967C15.0033 6.05384 15.3068 6.00332 15.5661 5.99811Z" fill="#00081C"/>
<path d="M15.5662 5.99811C15.6232 6.03957 15.6447 6.07602 15.6305 6.10748C15.5784 6.16082 15.5382 6.19613 15.5099 6.21342C15.1826 6.41384 14.8905 6.60623 14.6337 6.79061C14.2384 7.07415 13.8595 7.40071 13.4968 7.7703C12.6133 8.67092 11.9693 9.76905 11.5699 10.9603C11.3595 11.5884 11.2303 12.2543 11.1824 12.9578C11.1493 13.4445 11.1622 13.9094 11.2212 14.3525C11.353 15.3444 11.6877 16.3081 12.2318 17.1422C12.4703 17.508 12.7386 17.823 13.0365 18.0872C13.5465 18.5397 14.1321 18.7781 14.8049 18.74C15.0928 18.7237 15.349 18.6758 15.5733 18.5962C16.1642 18.3862 16.6676 18.0472 17.0837 17.579C17.0851 17.5775 17.0859 17.5754 17.0861 17.5733C17.0862 17.5712 17.0857 17.5691 17.0845 17.5673C17.0833 17.5655 17.0816 17.5641 17.0796 17.5634C17.0776 17.5628 17.0754 17.5627 17.0733 17.5634C17.0165 17.5812 16.9543 17.5962 16.9027 17.6162C16.6254 17.7241 16.3792 17.8014 16.164 17.8481C15.5258 17.9858 14.9251 17.9032 14.3618 17.6003C13.8637 17.3322 13.5074 16.9659 13.1924 16.4919C12.9005 16.0525 12.7265 15.5384 12.6249 15.0165C12.5734 14.7515 12.5505 14.4573 12.5562 14.1337C12.5724 13.1827 12.7959 12.2763 13.2268 11.4147C13.5566 10.7547 13.9783 10.166 14.4921 9.64873C14.8373 9.30082 15.2223 8.98686 15.6471 8.70686C16.0719 8.42665 16.5143 8.20092 16.9743 8.02967C18.5021 7.46123 20.3268 7.47655 21.8299 8.16061C22.9849 8.68623 23.9362 9.58623 24.6065 10.6765C25.1456 11.5534 25.5327 12.5015 25.7677 13.5209C25.8144 13.7228 25.8581 13.9372 25.899 14.164C25.9137 14.2453 25.9477 14.4515 25.8618 14.4928C25.7743 14.5347 25.6565 14.3962 25.6155 14.329C25.4862 14.118 25.3452 13.8918 25.1927 13.6503C24.7956 13.022 24.3645 12.4586 23.8993 11.9603C22.9437 10.9369 21.7002 10.214 20.3083 10.0378C19.9886 9.99738 19.7501 9.97717 19.593 9.97717C18.8814 9.97717 18.1796 10.0825 17.4877 10.2931C17.0431 10.4285 16.6068 10.6221 16.1787 10.8737C15.7503 11.1256 15.3809 11.3999 15.0705 11.6965C14.389 12.3481 13.7971 13.134 13.6305 14.0859C13.5908 14.3119 13.5946 14.5065 13.6218 14.7453C13.6245 14.7699 13.6344 14.7857 13.6515 14.7928C13.6539 14.7939 13.6566 14.7944 13.6592 14.7944C13.6619 14.7944 13.6646 14.7939 13.667 14.7928C13.6695 14.7918 13.6717 14.7902 13.6735 14.7883C13.6754 14.7863 13.6768 14.7841 13.6777 14.7815C13.7275 14.6488 13.7944 14.5115 13.8783 14.3697C14.3715 13.5375 15.1355 12.865 15.9793 12.4084C16.317 12.2257 16.6469 12.0882 16.969 11.9959C17.6196 11.809 18.2921 11.74 18.9621 11.7822C19.251 11.8003 19.5595 11.8509 19.8874 11.934C20.6789 12.1349 21.3868 12.4843 22.0112 12.9822C22.5018 13.3734 22.8937 13.8309 23.2137 14.3565C23.7087 15.1699 23.9996 16.0475 24.0865 16.9894C24.1099 17.244 24.123 17.3409 24.1227 17.5675C24.1223 17.8504 24.1082 18.126 24.0805 18.3944C23.9446 19.7097 23.4099 20.9384 22.5696 21.9528C22.0802 22.5434 21.5008 23.0291 20.8315 23.41C20.0265 23.8679 19.1571 24.1545 18.2233 24.2697C18.0452 24.2918 17.8655 24.3175 17.6843 24.3469L16.8808 24.3394C15.9561 24.2908 15.0675 24.0999 14.2152 23.7665C13.7083 23.5684 13.2225 23.3132 12.7577 23.0009C12.6877 22.9537 12.5543 22.8575 12.5362 22.7812C12.532 22.7634 12.5351 22.7445 12.5449 22.7281C12.5547 22.7118 12.5705 22.6992 12.5893 22.6928C12.6249 22.6803 12.6724 22.6778 12.7318 22.6853C12.7318 22.6853 12.9583 22.7296 13.4071 22.8175C13.9767 22.9294 14.5616 22.9875 15.1618 22.9919C16.1407 22.9991 17.0876 22.829 18.0024 22.4815C18.8937 22.1431 19.7055 21.5753 20.2512 20.8153C20.6208 20.3003 20.889 19.71 21.0196 19.069C21.2899 17.7444 21.089 16.3297 20.3427 15.1906C19.9348 14.5679 19.3995 14.1061 18.7368 13.8053C18.4497 13.6751 18.1625 13.5968 17.8752 13.5703C17.1571 13.5044 16.4815 13.585 15.8852 13.9928C15.82 14.0374 15.7372 14.1166 15.6368 14.2306C15.4002 14.499 15.3155 14.8675 15.4499 15.1978C15.4514 15.2015 15.4539 15.2047 15.4572 15.207C15.4605 15.2093 15.4644 15.2105 15.4684 15.2106C15.4725 15.2107 15.4764 15.2096 15.4798 15.2074C15.4831 15.2052 15.4858 15.2021 15.4874 15.1984C15.5733 15.0075 15.5996 14.8787 15.8143 14.7756C15.9387 14.7158 16.0529 14.6791 16.1571 14.6656C16.8477 14.5762 17.4787 14.8337 17.9833 15.2997C18.1146 15.4209 18.2128 15.5227 18.278 15.605C18.6818 16.1154 18.9071 16.7054 18.954 17.375C18.9981 18.0046 18.827 18.5719 18.4405 19.0769C17.7402 19.9928 16.7396 20.5759 15.6233 20.8331C15.0067 20.9754 14.3704 20.9985 13.7146 20.9025C13.0711 20.8083 12.4625 20.6149 11.889 20.3222C11.7542 20.2532 11.6268 20.1772 11.5068 20.094C11.4996 20.089 11.4909 20.0867 11.4822 20.0876C11.4734 20.0884 11.4653 20.0924 11.4593 20.0987C11.1522 20.4164 10.778 20.5999 10.3368 20.649C9.24209 20.7709 8.21834 20.0603 7.76397 19.0881C7.59303 18.7222 7.49209 18.2434 7.54928 17.8347C7.61272 17.3806 7.77397 16.9731 8.08834 16.6353C8.09958 16.6232 8.1075 16.6084 8.11134 16.5923C8.11517 16.5762 8.11478 16.5593 8.11022 16.5434C8.0874 16.4647 8.05178 16.3775 8.02834 16.2781C7.86116 15.5722 7.81959 14.8703 7.85147 14.1322C7.89709 13.0826 8.1274 12.089 8.5424 11.1515C9.21834 9.62405 10.3924 8.35905 11.7933 7.44905C12.8254 6.77863 13.9359 6.31852 15.1249 6.06873C15.1687 6.05957 15.2423 6.04852 15.3458 6.03561C15.4213 6.02623 15.4947 6.01373 15.5662 5.99811Z" fill="white"/>
<path d="M15.6305 6.10748C15.6274 6.1529 15.5942 6.19519 15.5309 6.23436C15.1388 6.47665 14.8503 6.66467 14.6655 6.79842C14.5985 6.84696 14.4438 6.96988 14.2015 7.16717C13.8693 7.4378 13.5621 7.7428 13.3093 8.01248C13.2208 8.10707 13.1067 8.23998 12.9671 8.41123C12.6977 8.74248 12.4709 9.10342 12.2484 9.48248C12.229 9.5154 12.1587 9.65373 12.0374 9.89748C11.5589 10.8587 11.285 11.8793 11.2159 12.959C11.1865 13.4176 11.1967 13.8508 11.2465 14.2587C11.2574 14.3503 11.2818 14.4481 11.2856 14.5431C11.2872 14.5827 11.292 14.6205 11.2999 14.6565C11.3972 15.0951 11.4607 15.3591 11.4902 15.4487C11.5669 15.6812 11.6326 15.8706 11.6874 16.0169C11.8716 16.5087 12.1512 17.0024 12.5262 17.4978C12.5553 17.5365 12.6593 17.654 12.8381 17.8503C13.224 18.274 13.7805 18.6319 14.359 18.6884C14.5984 18.712 14.8444 18.7099 15.0971 18.6822C15.2313 18.6674 15.3787 18.6326 15.5393 18.5778C16.1035 18.3851 16.5874 18.0723 16.9912 17.6394C16.9922 17.6382 16.9929 17.6367 16.9932 17.6352C16.9935 17.6336 16.9933 17.632 16.9927 17.6306C16.9922 17.6291 16.9912 17.6278 16.9899 17.6269C16.9886 17.626 16.9871 17.6254 16.9855 17.6253C16.9614 17.6234 16.9394 17.6269 16.9196 17.6356C16.6963 17.7337 16.442 17.8156 16.1568 17.8812C15.8756 17.946 15.5737 17.9595 15.2512 17.9215C14.509 17.834 13.8265 17.3747 13.3693 16.7869C13.2152 16.589 13.0309 16.3122 12.9259 16.0734C12.7048 15.5705 12.5772 15.0953 12.5431 14.6478C12.4806 13.8259 12.5818 13.0272 12.8468 12.2515C13.0252 11.729 13.2802 11.225 13.5577 10.7675C13.5796 10.7314 13.6603 10.6148 13.7999 10.4175C13.8737 10.3133 13.9405 10.2281 14.0005 10.1619C14.093 10.0603 14.1806 9.9328 14.2796 9.82905C14.6042 9.48884 14.9464 9.18446 15.3062 8.91592C15.6118 8.6878 15.9441 8.48175 16.3031 8.2978C16.9285 7.97717 17.5597 7.77113 18.1968 7.67967C18.3072 7.66363 18.3777 7.6529 18.4084 7.64748C18.6671 7.59998 18.9387 7.60061 19.2212 7.5903C19.3621 7.58498 19.503 7.60655 19.6555 7.60311C19.6976 7.60207 19.7552 7.60519 19.8284 7.61248C20.039 7.63352 20.2607 7.66602 20.4934 7.70998C21.459 7.89165 22.3233 8.28748 23.0862 8.89748C23.263 9.03905 23.5359 9.26967 23.7205 9.46967C24.0205 9.7955 24.2622 10.0947 24.4455 10.3672C24.9441 11.1086 25.329 11.9087 25.6002 12.7675C25.7065 13.1035 25.8093 13.5115 25.9087 13.9915C25.9333 14.1103 25.9459 14.244 25.9465 14.3928C25.9465 14.4303 25.9284 14.4668 25.8921 14.5022C25.8838 14.5103 25.8729 14.5153 25.8612 14.5165C25.7243 14.5309 25.6368 14.4347 25.5762 14.3297C25.1074 13.5181 24.5871 12.7556 23.9546 12.0612C23.6079 11.6802 23.2233 11.3412 22.8005 11.0444C22.1916 10.6164 21.5309 10.3202 20.8184 10.1556C20.7396 10.1375 20.6723 10.1247 20.6165 10.1172C20.4612 10.0965 20.3296 10.0625 20.1627 10.0522C20.1417 10.0507 20.0575 10.0428 19.9102 10.0284C19.7044 10.0082 19.4583 10.0061 19.1718 10.0222C18.6249 10.0532 18.0722 10.1522 17.5137 10.319C17.2285 10.404 16.9725 10.5002 16.7459 10.6075C16.5046 10.7216 16.2646 10.8527 16.0259 11.0006C15.4873 11.3339 15.0289 11.7277 14.6506 12.1819C14.5412 12.3128 14.4452 12.3972 14.359 12.5519C14.3548 12.5598 14.35 12.5673 14.3446 12.5744C14.2021 12.7635 14.1062 12.9087 14.0568 13.01C13.9493 13.2302 13.8774 13.3849 13.8412 13.474C13.7981 13.5801 13.7504 13.7348 13.6984 13.9381C13.6348 14.1852 13.6177 14.4459 13.6471 14.7203C13.6472 14.7219 13.6478 14.7234 13.6489 14.7246C13.65 14.7259 13.6514 14.7267 13.653 14.727C13.6546 14.7272 13.6562 14.727 13.6577 14.7262C13.6591 14.7255 13.6602 14.7243 13.6609 14.7228C13.7918 14.4662 13.9662 14.1397 14.1968 13.8531C14.5012 13.4754 14.861 13.1324 15.2762 12.824C15.751 12.4713 16.2504 12.2059 16.7746 12.0278C17.1157 11.9122 17.4281 11.8375 17.7118 11.8037C17.8856 11.7831 18.0643 11.7519 18.2634 11.7428C18.7027 11.7231 19.1287 11.7328 19.5281 11.8219C19.6652 11.8522 19.773 11.8659 19.9037 11.9012C20.3872 12.0319 20.8167 12.1985 21.1921 12.4012C21.38 12.5027 21.5799 12.6283 21.7918 12.7781C22.2268 13.0856 22.5953 13.4387 22.8974 13.8375C23.1043 14.1106 23.2971 14.415 23.4759 14.7506C23.5707 14.9285 23.6503 15.1036 23.7149 15.2759C23.8791 15.713 23.9979 16.152 24.0715 16.5928C24.1062 16.8006 24.1215 17.0006 24.149 17.2209C24.1696 17.3851 24.171 17.6186 24.1531 17.9215C24.1337 18.2511 24.101 18.5494 24.0549 18.8162C24.0027 19.1212 23.9205 19.4803 23.8105 19.7928C23.6168 20.3445 23.3784 20.8415 23.0952 21.284C23.0129 21.4126 22.8766 21.6018 22.6862 21.8515C22.5412 22.0418 22.3891 22.2182 22.2299 22.3809C22.0589 22.5557 21.8738 22.7238 21.6746 22.8853C21.5977 22.9476 21.4338 23.0623 21.1827 23.2294C21 23.351 20.8282 23.4532 20.6671 23.5359C20.2309 23.7605 19.8175 23.932 19.4271 24.0503C19.2209 24.1128 18.9598 24.1772 18.644 24.2434C18.3267 24.3099 18.0068 24.3444 17.6843 24.3469C17.8656 24.3175 18.0452 24.2918 18.2234 24.2697C19.1571 24.1545 20.0265 23.8679 20.8315 23.41C21.5009 23.0291 22.0802 22.5434 22.5696 21.9528C23.4099 20.9384 23.9446 19.7097 24.0806 18.3944C24.1083 18.126 24.1223 17.8504 24.1227 17.5675C24.123 17.3409 24.1099 17.244 24.0865 16.9894C23.9996 16.0475 23.7087 15.1699 23.2137 14.3565C22.8937 13.8309 22.5018 13.3734 22.0112 12.9822C21.3868 12.4843 20.6789 12.1349 19.8874 11.934C19.5595 11.8509 19.2511 11.8003 18.9621 11.7822C18.2921 11.74 17.6196 11.809 16.969 11.9959C16.6469 12.0882 16.317 12.2257 15.9793 12.4084C15.1356 12.865 14.3715 13.5375 13.8784 14.3697C13.7944 14.5115 13.7275 14.6488 13.6777 14.7815C13.6768 14.7841 13.6754 14.7863 13.6735 14.7883C13.6717 14.7902 13.6695 14.7918 13.667 14.7928C13.6646 14.7939 13.6619 14.7944 13.6593 14.7944C13.6566 14.7944 13.6539 14.7939 13.6515 14.7928C13.6344 14.7857 13.6245 14.7699 13.6218 14.7453C13.5946 14.5065 13.5909 14.3119 13.6305 14.0859C13.7971 13.134 14.389 12.3481 15.0706 11.6965C15.381 11.3999 15.7503 11.1256 16.1787 10.8737C16.6068 10.6221 17.0432 10.4285 17.4877 10.2931C18.1796 10.0825 18.8814 9.97717 19.593 9.97717C19.7501 9.97717 19.9886 9.99738 20.3084 10.0378C21.7002 10.214 22.9437 10.9369 23.8993 11.9603C24.3645 12.4586 24.7957 13.022 25.1927 13.6503C25.3452 13.8918 25.4862 14.118 25.6156 14.329C25.6565 14.3962 25.7743 14.5347 25.8618 14.4928C25.9477 14.4515 25.9137 14.2453 25.899 14.164C25.8582 13.9372 25.8144 13.7228 25.7677 13.5209C25.5327 12.5015 25.1457 11.5534 24.6065 10.6765C23.9362 9.58623 22.9849 8.68623 21.8299 8.16061C20.3268 7.47655 18.5021 7.46123 16.9743 8.02967C16.5143 8.20092 16.0719 8.42665 15.6471 8.70686C15.2223 8.98686 14.8373 9.30082 14.4921 9.64873C13.9784 10.166 13.5566 10.7547 13.2268 11.4147C12.796 12.2763 12.5724 13.1827 12.5562 14.1337C12.5505 14.4573 12.5735 14.7515 12.6249 15.0165C12.7265 15.5384 12.9006 16.0525 13.1924 16.4919C13.5074 16.9659 13.8637 17.3322 14.3618 17.6003C14.9251 17.9032 15.5259 17.9858 16.164 17.8481C16.3792 17.8014 16.6254 17.7241 16.9027 17.6162C16.9543 17.5962 17.0165 17.5812 17.0734 17.5634C17.0754 17.5627 17.0776 17.5628 17.0796 17.5634C17.0816 17.5641 17.0833 17.5655 17.0845 17.5673C17.0857 17.5691 17.0863 17.5712 17.0861 17.5733C17.0859 17.5754 17.0851 17.5775 17.0837 17.579C16.6676 18.0472 16.1642 18.3862 15.5734 18.5962C15.349 18.6758 15.0928 18.7237 14.8049 18.74C14.1321 18.7781 13.5465 18.5397 13.0365 18.0872C12.7386 17.823 12.4703 17.508 12.2318 17.1422C11.6877 16.3081 11.353 15.3444 11.2212 14.3525C11.1622 13.9094 11.1493 13.4445 11.1824 12.9578C11.2303 12.2543 11.3595 11.5884 11.5699 10.9603C11.9693 9.76905 12.6134 8.67092 13.4968 7.7703C13.8595 7.40071 14.2385 7.07415 14.6337 6.79061C14.8905 6.60623 15.1826 6.41384 15.5099 6.21342C15.5383 6.19613 15.5785 6.16082 15.6305 6.10748Z" fill="#00081C"/>
</g>
<defs>
<clipPath id="clip0_601_10">
<rect width="32" height="32" fill="white"/>
</clipPath>
</defs>
</svg>
