<?xml version="1.0" encoding="utf-8"?>
<!-- Generator: Adobe Illustrator 21.0.0, SVG Export Plug-In . SVG Version: 6.00 Build 0)  -->
<svg version="1.1"
	 id="svg14" inkscape:version="1.4.3 (0d15f75, 2025-12-25)" sodipodi:docname="0e6531dee671c763f9734032f3e35fef (1).svg" xmlns:inkscape="http://www.inkscape.org/namespaces/inkscape" xmlns:sodipodi="http://sodipodi.sourceforge.net/DTD/sodipodi-0.dtd" xmlns:svg="http://www.w3.org/2000/svg"
	 xmlns="http://www.w3.org/2000/svg" xmlns:xlink="http://www.w3.org/1999/xlink" x="0px" y="0px" viewBox="0 0 907.1 907.1"
	 style="enable-background:new 0 0 907.1 907.1;" xml:space="preserve">
<style type="text/css">
	.st0{fill:#FFFFFF;}
	.st1{fill:none;stroke:#80848E;stroke-width:2;}
	.st2{fill:none;stroke:#052F64;stroke-width:2;}
	.st3{fill:none;stroke:#85ABD6;stroke-width:2;}
	.st4{fill:#0A56AC;}
	.st5{fill:#00081C;}
</style>
<g id="g10">
	<path id="path9" class="st0" d="M907.1,0v907.1H0V0H907.1z M181.1,220.2c-28.7,34.5-50.1,74.4-63,117c-6.7,22.2-11.4,46-14,71.4
		c-1.4,14.1-1.5,29.2-1.3,42.9c0.4,28.6,4.9,57,13.5,85.1c3.2,10.6,5.5,17.6,6.8,21.1c4.5,12.1,9.4,23.2,14.5,33.5
		c30.7,61.2,78.8,113.2,137.6,148.6c33.8,20.4,72.5,34.5,111.3,42.1c1.2,0.2,6.9,1.2,17,3c4.7,0.8,9,0.9,13.7,1.6
		c2.6,0.4,6,0.7,10.3,1c15.6,1.1,28.8,1.4,39.8,0.9c13.6-0.6,26.5-1.9,38.7-3.7c21.1-3.2,42.1-8.2,62.5-15.3
		c6.5-2.3,10.7-3.7,12.5-4.4c14.4-5.5,31.2-13.3,44.7-21c23.9-13.7,45.3-29.3,64.2-46.7c9.5-8.7,17.8-17.1,25.1-25.1
		c30.8-33.9,53.9-72.1,69.3-114.4c29.8-82.1,26.2-174-7.8-254.3c-7.5-17.7-17.7-36.6-30.7-56.8c-3.4-5.3-7.6-11.2-12.7-17.8
		c-5.9-7.7-10.5-13.4-13.8-17.1c-19.8-22.3-42.3-41.9-67.3-58.8c-40.8-27.6-85.4-45.8-133.6-54.8c-8.9-1.7-17.4-2.8-25.3-3.5
		c-12-1-23.9-1.6-35.9-1.8c-18.3-0.2-38.2,1.3-56,3.8c-27.2,3.8-54.6,10.8-80.3,21.4c-9.8,4-18.1,7.7-24.9,11.1
		c-23,11.5-44.7,25.4-64.8,41.7c-4.9,4-10.2,8.4-15.8,13.3c-3.4,3-9.8,9.3-19.2,18.8C192.5,206.9,187.5,212.6,181.1,220.2
		L181.1,220.2z"/>
	<path id="path10" class="st0" d="M441.2,170c1.6,1.2,2.2,2.2,1.8,3.1c-1.5,1.5-2.6,2.5-3.4,3c-9.3,5.7-17.6,11.1-24.8,16.4
		c-11.2,8-21.9,17.3-32.2,27.8c-25,25.5-43.3,56.7-54.6,90.4c-6,17.8-9.6,36.7-11,56.6c-0.9,13.8-0.6,27,1.1,39.5
		c3.7,28.1,13.2,55.4,28.6,79.1c6.8,10.4,14.4,19.3,22.8,26.8c14.5,12.8,31.1,19.6,50.1,18.5c8.2-0.5,15.4-1.8,21.8-4.1
		c16.7-6,31-15.6,42.8-28.8c0.1-0.1,0.1-0.3,0-0.4c-0.1-0.1-0.2-0.1-0.3-0.1c-1.6,0.5-3.4,0.9-4.8,1.5c-7.9,3.1-14.8,5.2-20.9,6.6
		c-18.1,3.9-35.1,1.6-51.1-7c-14.1-7.6-24.2-18-33.1-31.4c-8.3-12.5-13.2-27-16.1-41.8c-1.5-7.5-2.1-15.9-1.9-25
		c0.5-27,6.8-52.7,19-77.1c9.3-18.7,21.3-35.4,35.9-50.1c9.8-9.9,20.7-18.8,32.7-26.7c12-7.9,24.6-14.3,37.6-19.2
		c43.3-16.1,95-15.7,137.6,3.7c32.7,14.9,59.7,40.4,78.7,71.3c15.3,24.9,26.3,51.7,32.9,80.6c1.3,5.7,2.6,11.8,3.7,18.2
		c0.4,2.3,1.4,8.1-1.1,9.3c-2.5,1.2-5.8-2.7-7-4.6c-3.7-6-7.7-12.4-12-19.2c-11.3-17.8-23.5-33.8-36.7-47.9
		c-27.1-29-62.3-49.5-101.8-54.5c-9.1-1.1-15.8-1.7-20.3-1.7c-20.2,0-40.1,3-59.7,9c-12.6,3.8-25,9.3-37.1,16.5
		c-12.1,7.1-22.6,14.9-31.4,23.3c-19.3,18.5-36.1,40.7-40.8,67.7c-1.1,6.4-1,11.9-0.2,18.7c0.1,0.7,0.4,1.1,0.8,1.3
		c0.3,0.1,0.6,0,0.7-0.3c0,0,0,0,0,0c1.4-3.8,3.3-7.7,5.7-11.7c14-23.6,35.6-42.7,59.6-55.6c9.6-5.2,18.9-9.1,28.1-11.7
		c18.4-5.3,37.5-7.3,56.5-6.1c8.2,0.5,16.9,1.9,26.2,4.3c22.4,5.7,42.5,15.6,60.2,29.7c13.9,11.1,25,24.1,34.1,39
		c14,23.1,22.3,47.9,24.7,74.6c0.7,7.2,1,10,1,16.4c0,8-0.4,15.8-1.2,23.4c-3.9,37.3-19,72.1-42.8,100.9
		c-13.9,16.7-30.3,30.5-49.3,41.3c-22.8,13-47.5,21.1-73.9,24.4c-5,0.6-10.1,1.4-15.3,2.2l-22.8-0.2c-26.2-1.4-51.4-6.8-75.6-16.2
		c-14.4-5.6-28.1-12.9-41.3-21.7c-2-1.3-5.8-4.1-6.3-6.2c-0.2-1,0.4-2.1,1.5-2.5c1-0.4,2.4-0.4,4-0.2c0,0,6.4,1.3,19.1,3.7
		c16.1,3.2,32.7,4.8,49.7,4.9c27.8,0.2,54.6-4.6,80.5-14.5c25.3-9.6,48.3-25.7,63.7-47.2c10.5-14.6,18.1-31.3,21.8-49.5
		c7.7-37.6,2-77.7-19.2-109.9c-11.6-17.7-26.7-30.7-45.5-39.3c-8.1-3.7-16.3-5.9-24.4-6.7c-20.4-1.9-39.5,0.4-56.4,12
		c-1.8,1.3-4.2,3.5-7,6.7c-6.7,7.6-9.1,18.1-5.3,27.4c0.1,0.3,0.5,0.4,0.7,0.3c0.1-0.1,0.3-0.2,0.3-0.3c2.4-5.4,3.2-9.1,9.3-12
		c3.5-1.7,6.8-2.7,9.7-3.1c19.6-2.5,37.5,4.8,51.8,18c3.7,3.4,6.5,6.3,8.4,8.7c11.4,14.5,17.8,31.2,19.2,50.2
		c1.3,17.8-3.6,33.9-14.6,48.2c-19.9,26-48.2,42.5-79.9,49.8c-17.5,4-35.5,4.7-54.1,2c-18.2-2.7-35.5-8.2-51.8-16.4
		c-3.8-2-7.4-4.1-10.8-6.5c-0.4-0.3-1-0.2-1.3,0.1c-8.7,9-19.3,14.2-31.8,15.6c-31,3.5-60.1-16.7-72.9-44.2
		c-4.8-10.4-7.7-23.9-6.1-35.5c1.8-12.9,6.4-24.4,15.3-34c0.6-0.7,0.9-1.7,0.6-2.6c-0.6-2.2-1.7-4.7-2.3-7.5
		c-4.7-20-5.9-39.9-5-60.8c1.3-29.8,7.8-57.9,19.6-84.5c19.2-43.3,52.4-79.2,92.2-105c29.3-19,60.7-32,94.4-39.1
		c1.2-0.3,3.3-0.6,6.3-0.9C437.1,170.8,439.2,170.5,441.2,170z"/>
</g>
<g>
	<g id="g8">
		<path id="path1" vector-effect="non-scaling-stroke" class="st1" d="M145.9,204.5c-32.4,38.9-56.6,84-71.2,132.1
			c-7.6,25.1-12.8,51.9-15.8,80.6c-1.6,15.9-1.7,33-1.5,48.4c0.5,32.3,5.6,64.3,15.3,96.1c3.6,11.9,6.2,19.9,7.7,23.8
			c5.1,13.6,10.6,26.2,16.4,37.8c34.6,69.1,89,127.8,155.3,167.7c38.2,23,81.9,39,125.6,47.5c1.4,0.3,7.8,1.4,19.2,3.4
			c5.3,0.9,10.2,1,15.5,1.9c2.9,0.4,6.8,0.8,11.6,1.2c17.6,1.3,32.5,1.6,44.9,1c15.3-0.7,29.9-2.1,43.7-4.2
			c23.9-3.6,47.5-9.2,70.6-17.3c7.4-2.6,12.1-4.2,14.1-5c16.3-6.2,35.2-15,50.5-23.7c27-15.5,51.1-33.1,72.5-52.7
			c10.7-9.8,20.1-19.3,28.3-28.3c34.8-38.3,60.9-81.4,78.2-129.2c33.7-92.7,29.6-196.4-8.8-287c-8.5-20-20-41.3-34.7-64.1
			c-3.8-6-8.6-12.7-14.3-20.1c-6.7-8.7-11.9-15.1-15.6-19.4c-22.4-25.2-47.7-47.3-76-66.4c-46.1-31.1-96.4-51.7-150.8-61.8
			c-10.1-1.9-19.6-3.2-28.6-4c-13.5-1.2-27-1.8-40.5-2c-20.6-0.2-43.2,1.5-63.2,4.3c-30.8,4.3-61.6,12.2-90.6,24.1
			c-11,4.5-20.4,8.7-28.1,12.5c-26,12.9-50.4,28.6-73.2,47.1c-5.6,4.5-11.5,9.5-17.8,15c-3.9,3.4-11.1,10.5-21.6,21.2
			C158.8,189.4,153.1,195.8,145.9,204.5"/>
		<path id="path2" vector-effect="non-scaling-stroke" class="st2" d="M146.7,205.1c-32.3,38.8-56.5,83.8-71,131.8
			c-7.6,25-12.8,51.8-15.7,80.5c-1.6,15.9-1.7,32.9-1.4,48.3c0.5,32.2,5.6,64.1,15.2,95.8c3.6,11.9,6.2,19.8,7.7,23.8
			c5.1,13.6,10.6,26.2,16.3,37.7c34.6,68.9,88.8,127.5,154.9,167.3c38.1,22.9,81.7,38.9,125.3,47.4c1.4,0.3,7.8,1.4,19.2,3.4
			c5.3,0.9,10.2,1,15.4,1.8c2.9,0.4,6.8,0.8,11.6,1.2c17.5,1.2,32.5,1.6,44.8,1c15.3-0.7,29.8-2.1,43.6-4.2
			c23.8-3.6,47.4-9.2,70.4-17.2c7.3-2.5,12-4.2,14.1-5c16.3-6.2,35.1-14.9,50.3-23.7c26.9-15.4,51-33,72.3-52.6
			c10.7-9.8,20.1-19.2,28.2-28.3c34.7-38.2,60.7-81.2,78-128.8c33.6-92.5,29.5-195.9-8.8-286.3c-8.4-19.9-20-41.2-34.6-64
			c-3.8-6-8.6-12.6-14.3-20c-6.6-8.6-11.8-15.1-15.6-19.3c-22.4-25.1-47.6-47.2-75.8-66.2c-46-31-96.1-51.6-150.4-61.7
			c-10-1.9-19.5-3.2-28.5-3.9c-13.5-1.2-27-1.8-40.4-2c-20.6-0.2-43.1,1.5-63,4.3c-30.7,4.3-61.5,12.2-90.4,24.1
			c-11,4.5-20.3,8.7-28,12.5c-25.9,12.9-50.3,28.6-73,47c-5.6,4.5-11.5,9.5-17.8,15c-3.9,3.4-11.1,10.4-21.6,21.1
			C159.6,190,153.9,196.4,146.7,205.1"/>
		<path id="path3" vector-effect="non-scaling-stroke" class="st3" d="M481.7,734.7l25.7,0.2"/>
		<path id="path4" vector-effect="non-scaling-stroke" class="st2" d="M507.4,734.9c10.3-0.1,20.6-1.2,30.7-3.3
			c10.1-2.1,18.5-4.2,25.1-6.2c12.5-3.8,25.7-9.3,39.7-16.5c5.2-2.6,10.7-5.9,16.5-9.8c8-5.3,13.3-9,15.7-11
			c6.4-5.2,12.3-10.5,17.8-16.1c5.1-5.2,10-10.9,14.6-16.9c6.1-8,10.5-14,13.1-18.2c9.1-14.2,16.7-30.1,22.9-47.7
			c3.5-10,6.2-21.5,7.8-31.3c1.5-8.5,2.5-18.1,3.1-28.6c0.6-9.7,0.5-17.2-0.1-22.4c-0.9-7-1.4-13.5-2.5-20.1
			c-2.4-14.1-6.2-28.2-11.4-42.1c-2.1-5.5-4.6-11.1-7.7-16.8c-5.7-10.7-11.9-20.5-18.5-29.2c-9.7-12.8-21.5-24.1-35.4-33.9
			c-6.8-4.8-13.2-8.8-19.2-12.1c-12-6.5-25.8-11.8-41.2-16c-4.2-1.1-7.6-1.6-12-2.5c-12.8-2.9-26.4-3.2-40.5-2.5
			c-6.4,0.3-12.1,1.3-17.7,2c-9.1,1.1-19.1,3.5-30,7.2c-16.8,5.7-32.8,14.2-48,25.5c-13.3,9.9-24.8,20.8-34.5,32.9
			c-7.4,9.2-13,19.6-17.1,27.8c-0.1,0.1-0.2,0.2-0.3,0.1c-0.1,0-0.1-0.1-0.1-0.2c-0.9-8.8-0.4-17.1,1.6-25
			c1.7-6.5,3.2-11.5,4.6-14.9c1.2-2.9,3.5-7.8,6.9-14.9c1.6-3.2,4.7-7.9,9.2-13.9c0.2-0.2,0.3-0.5,0.5-0.7c2.8-5,5.8-7.6,9.3-11.8
			c12.1-14.5,26.8-27.1,44-37.8c7.6-4.7,15.3-8.9,23-12.6c7.3-3.4,15.4-6.5,24.6-9.2c17.9-5.3,35.6-8.5,53.1-9.5
			c9.2-0.5,17-0.4,23.6,0.2c4.7,0.5,7.4,0.7,8.1,0.8c5.3,0.3,9.5,1.4,14.5,2.1c1.8,0.2,3.9,0.6,6.5,1.2
			c22.8,5.3,43.9,14.7,63.4,28.4c13.5,9.5,25.8,20.3,36.9,32.5c20.2,22.2,36.9,46.6,51.9,72.6c1.9,3.4,4.7,6.4,9.1,6
			c0.4,0,0.7-0.2,1-0.5c1.2-1.1,1.7-2.3,1.7-3.5c0-4.8-0.4-9-1.2-12.8c-3.2-15.4-6.5-28.4-9.9-39.2c-8.7-27.5-21-53.1-37-76.8
			c-5.9-8.7-13.6-18.3-23.2-28.7c-5.9-6.4-14.6-13.8-20.3-18.3c-24.4-19.5-52.1-32.2-83-38c-7.4-1.4-14.5-2.4-21.3-3.1
			c-2.3-0.2-4.2-0.3-5.5-0.3c-4.9,0.1-9.4-0.6-13.9-0.4c-9,0.3-17.7,0.3-26,1.8c-1,0.2-3.2,0.5-6.8,1c-20.4,2.9-40.6,9.5-60.6,19.8
			c-11.5,5.9-22.1,12.5-31.9,19.8c-11.5,8.6-22.5,18.3-32.9,29.2c-3.2,3.3-6,7.4-8.9,10.6c-1.9,2.1-4.1,4.8-6.4,8.2
			c-4.5,6.3-7.1,10-7.8,11.2c-8.9,14.6-17,30.8-22.8,47.5c-8.5,24.8-11.7,50.4-9.7,76.7c1.1,14.3,5.2,29.5,12.3,45.6
			c3.4,7.6,9.3,16.5,14.2,22.8c14.6,18.8,36.5,33.5,60.2,36.3c10.3,1.2,20,0.8,29-1.3c9.1-2.1,17.3-4.7,24.4-7.9
			c0.6-0.3,1.3-0.4,2.1-0.3c0.1,0,0.3,0.1,0.2,0.3c0,0.1,0,0.1-0.1,0.2c-12.9,13.9-28.4,23.9-46.5,30c-5.1,1.8-9.9,2.9-14.1,3.3
			c-8.1,0.9-16,1-23.6,0.2c-18.5-1.8-36.3-13.3-48.7-26.8c-5.7-6.3-9-10-10-11.3c-12-15.9-20.9-31.7-26.8-47.4
			c-1.8-4.7-3.9-10.7-6.3-18.2c-0.9-2.9-3-11.3-6.1-25.4c-0.3-1.2-0.4-2.4-0.5-3.6c-0.1-3-0.9-6.2-1.3-9.1
			c-1.6-13.1-1.9-26.9-1-41.6c2.2-34.6,11-67.2,26.3-98c3.9-7.8,6.1-12.2,6.8-13.3c7.1-12.1,14.4-23.7,23-34.3
			c4.5-5.5,8.1-9.7,11-12.8c8.1-8.6,17.9-18.4,28.5-27.1c7.8-6.3,12.7-10.2,14.9-11.8c5.9-4.3,15.1-10.3,27.7-18.1
			c2-1.3,3.1-2.6,3.2-4.1"/>
		<path id="path5" vector-effect="non-scaling-stroke" class="st3" d="M441.7,151.3c0.5-1-0.2-2.2-2.1-3.5"/>
		<path id="path6" vector-effect="non-scaling-stroke" class="st2" d="M439.6,147.8c-8.3,0.2-18,1.8-29.1,4.9
			c-7.5,2.1-14.9,4.2-22.1,6.5c-3.1,1-6,2-8.7,3.1c-0.2,0.1-3.1,1.2-8.6,3.5c-13.5,5.5-27.6,12.5-42.1,21.1
			c-3.8,2.2-6.7,4.1-8.9,5.6c-7.3,5.1-14.2,9.4-21.5,15c-13.5,10.3-26.1,21.8-37.8,34.4c-26.5,28.5-45.6,61.2-57.3,98
			c-1.6,4.9-3.2,11-4.9,18.3c-2.1,9.1-3.4,15.3-3.9,18.5c-3.4,24.5-4.3,47.5-2.5,69.1c0.7,8.3,2.4,18.9,5.3,32
			c0.5,2.5,1.8,5,2.3,7.3c0.2,1.1-0.1,2.2-0.8,3.1c-10.2,11.1-16,25.9-17.3,40.7c-0.8,9.1,0.3,18.4,3.4,28
			c6.1,19.2,18,34.5,34.1,46.1c14.1,10.2,29.7,15.2,46.7,15c16.1-0.2,31-6.2,42.1-17.6c0.5-0.5,1.3-0.6,2-0.2
			c5.5,3.6,12.3,7.3,20.5,11.1c6.3,2.9,12.2,5.2,17.6,6.9c8.9,2.8,15,4.5,18.2,5.1c9.4,1.9,18.4,3.2,27.2,4c7.4,0.6,15.1,0.6,23,0
			c21.3-1.8,41.4-7,60.3-15.9c4.7-2.2,12-6.4,21.9-12.8c6.8-4.3,15.1-11.7,19.1-15.4c2.9-2.6,7.4-7.8,13.5-15.5
			c6.2-7.8,10.9-16.4,14-25.9c3-8.9,4.1-18.7,3.5-29.2c-0.9-15.6-5.1-30.3-12.6-44.3c-4.7-8.8-11.9-18.2-20.4-25
			c-5.7-4.6-9.2-7.3-10.6-8.2c-13-8.4-27.2-12.3-42.7-11.5c-6.2,0.3-11,2.1-16.1,4.6c-5.2,2.5-8.3,6.6-9.4,12.2
			c0,0.2-0.3,0.4-0.5,0.3c-0.1,0-0.3-0.1-0.3-0.2c-2.3-5.2-2-11.9-0.5-17.1c1-3.5,2.7-6.8,5.2-10c4.1-5.2,9-9.4,14.7-12.5
			c17.9-10,36.8-11.5,58.4-9.7c3.7,0.3,7.4,1,11.4,2c5.1,1.4,8.8,2.5,11.1,3.4c14.5,5.8,27.4,14.3,38.7,25.6
			c9.1,9.1,17,20,23.8,32.7c5.8,10.8,10.1,22.7,13.1,35.6c1.8,8,2.9,14.2,3.4,18.7c0.9,9.2,1.7,20.6,1.1,30.3
			c-0.9,14.2-3.3,27.6-7.1,40.4c-1,3.6-3,7.3-4,10.5c-0.6,2.1-1.7,4.7-3.3,7.7c-5.7,11.3-10.7,19.8-15.1,25.3
			c-7.4,9.4-14.7,17.1-21.9,23.1c-17.5,14.5-38,25.2-61.5,32.2c-6.8,2-13.1,3.8-18.7,5.3c-3.7,1-6.7,1.2-9.8,2
			c-1.7,0.5-4.2,0.9-7.4,1.2c-5.3,0.6-10.4,1.7-15.6,2c-21,1.4-42.8,1.3-63.7-1.7c-9.7-1.4-15.8-2.4-18.2-2.9
			c-9.8-2.1-17.1-3.5-21.9-4.3c-3.9-0.6-9.3,2.2-5.3,6.7c1.5,1.7,2.7,2.8,3.7,3.5c12.6,8.6,24,15.3,34.2,20
			c14.6,6.8,29.8,12.3,45.4,16.3c13.1,3.4,23.7,5.4,31.7,6.2c7.8,0.7,13,1.3,15.6,1.8c3.1,0.5,5.7,0.4,7.8-0.5"/>
		<path id="path7" vector-effect="non-scaling-stroke" class="st1" d="M439.6,147.8c-2.3,0.5-4.6,0.9-7,1.2
			c-3.3,0.4-5.7,0.8-7.1,1.1c-38,8-73.6,22.7-106.6,44.2c-44.8,29.1-82.4,69.6-104,118.5c-13.3,30-20.6,61.8-22.1,95.4
			c-1,23.6,0.3,46.1,5.7,68.7c0.8,3.2,1.9,6,2.6,8.5c0.3,1,0,2.2-0.7,2.9c-10.1,10.8-15.2,23.8-17.3,38.4
			c-1.8,13.1,1.4,28.4,6.9,40.1c14.5,31.1,47.3,53.8,82.3,50c14.1-1.6,26.1-7.4,35.9-17.6c0.4-0.4,1-0.5,1.5-0.2
			c3.8,2.7,7.9,5.1,12.2,7.3c18.4,9.4,37.8,15.6,58.4,18.6c21,3.1,41.3,2.3,61.1-2.2c35.7-8.2,67.7-26.9,90.2-56.2
			c12.4-16.2,17.8-34.3,16.4-54.5c-1.5-21.4-8.7-40.3-21.6-56.6c-2.1-2.6-5.2-5.9-9.4-9.8c-16.1-14.9-36.3-23.1-58.4-20.3
			c-3.3,0.4-7,1.6-11,3.5c-6.9,3.3-7.7,7.4-10.5,13.5c-0.1,0.3-0.5,0.5-0.9,0.3c-0.2-0.1-0.3-0.2-0.3-0.4c-4.3-10.6-1.6-22.4,6-31
			c3.2-3.6,5.9-6.2,8-7.6c19.1-13,40.7-15.6,63.7-13.5c9.2,0.8,18.4,3.4,27.6,7.5c21.2,9.6,38.3,24.4,51.4,44.3
			c23.9,36.5,30.3,81.7,21.7,124.1c-4.2,20.5-12.8,39.4-24.6,55.9c-17.5,24.3-43.4,42.5-72,53.3c-29.3,11.1-59.6,16.6-90.9,16.3
			c-19.2-0.1-37.9-2-56.1-5.6c-14.4-2.8-21.6-4.2-21.6-4.2c-1.9-0.2-3.4-0.2-4.6,0.2c-1.2,0.4-2,1.6-1.7,2.8c0.6,2.4,4.9,5.5,7.1,7
			c14.9,10,30.4,18.2,46.6,24.5c27.3,10.7,55.7,16.8,85.3,18.3"/>
		<path id="path8" vector-effect="non-scaling-stroke" class="st1" d="M441.7,151.3c-1.7,1.7-3,2.8-3.9,3.4
			c-10.5,6.4-19.8,12.6-28,18.5c-12.6,9.1-24.8,19.5-36.4,31.4c-28.3,28.8-48.9,64-61.7,102.1c-6.7,20.1-10.9,41.4-12.4,63.9
			c-1.1,15.6-0.6,30.4,1.2,44.6c4.2,31.7,14.9,62.6,32.3,89.3c7.6,11.7,16.2,21.8,25.8,30.2c16.3,14.5,35.1,22.1,56.6,20.9
			c9.2-0.5,17.4-2.1,24.6-4.6c18.9-6.7,35-17.6,48.3-32.5c0.1-0.1,0.1-0.3,0-0.4c-0.1-0.1-0.2-0.1-0.3-0.1c-1.8,0.6-3.8,1-5.5,1.7
			c-8.9,3.5-16.8,5.9-23.6,7.4c-20.4,4.4-39.6,1.8-57.7-7.9c-15.9-8.6-27.3-20.3-37.4-35.5c-9.3-14.1-14.9-30.5-18.2-47.2
			c-1.6-8.5-2.4-17.9-2.2-28.3c0.5-30.4,7.7-59.4,21.5-87c10.6-21.1,24-40,40.5-56.5c11-11.1,23.4-21.2,37-30.1
			c13.6-9,27.7-16.2,42.5-21.7c48.9-18.2,107.3-17.7,155.4,4.2c37,16.8,67.4,45.6,88.8,80.5c17.3,28.1,29.6,58.4,37.2,91
			c1.5,6.5,2.9,13.3,4.2,20.6c0.5,2.6,1.6,9.2-1.2,10.5c-2.8,1.3-6.6-3.1-7.9-5.2c-4.1-6.8-8.6-14-13.5-21.7
			c-12.7-20.1-26.5-38.1-41.4-54.1c-30.6-32.8-70.4-55.9-114.9-61.5c-10.2-1.3-17.9-1.9-22.9-1.9c-22.8,0-45.2,3.4-67.4,10.1
			c-14.2,4.3-28.2,10.5-41.9,18.6c-13.7,8.1-25.5,16.8-35.5,26.3c-21.8,20.9-40.8,46-46.1,76.5c-1.3,7.2-1.1,13.5-0.3,21.1
			c0.1,0.8,0.4,1.3,1,1.5c0.3,0.1,0.7,0,0.8-0.3c0,0,0,0,0,0c1.6-4.2,3.7-8.6,6.4-13.2c15.8-26.6,40.2-48.1,67.2-62.8
			c10.8-5.8,21.4-10.2,31.7-13.2c20.8-6,42.3-8.2,63.8-6.8c9.2,0.6,19.1,2.2,29.6,4.9c25.3,6.4,48,17.6,68,33.5
			c15.7,12.5,28.2,27.2,38.5,44c15.8,26,25.2,54.1,27.9,84.2c0.8,8.2,1.2,11.3,1.2,18.5c0,9.1-0.5,17.9-1.3,26.5
			c-4.3,42.1-21.5,81.4-48.3,113.9c-15.7,18.9-34.2,34.4-55.6,46.6c-25.8,14.7-53.6,23.8-83.5,27.5c-5.7,0.7-11.5,1.5-17.3,2.5"/>
	</g>
	<path id="path11" class="st4" d="M146.7,205.1c7.2-8.6,12.9-15.1,17-19.3c10.5-10.7,17.7-17.7,21.6-21.1c6.3-5.5,12.2-10.5,17.8-15
		c22.7-18.4,47.1-34.1,73-47c7.7-3.8,17-8,28-12.5c28.9-11.9,59.7-19.8,90.4-24.1c20-2.8,42.5-4.5,63.1-4.3c13.5,0.2,27,0.8,40.4,2
		c9,0.8,18.5,2.1,28.5,3.9c54.3,10.1,104.5,30.6,150.4,61.7c28.2,19,53.4,41.1,75.8,66.2c3.8,4.2,9,10.7,15.6,19.3
		c5.7,7.4,10.4,14.1,14.3,20c14.6,22.7,26.2,44,34.6,64c38.3,90.4,42.5,193.8,8.8,286.3c-17.3,47.7-43.3,90.6-78,128.8
		c-8.2,9-17.6,18.4-28.2,28.3c-21.3,19.6-45.4,37.1-72.3,52.6c-15.2,8.8-34.1,17.5-50.3,23.7c-2,0.8-6.7,2.4-14.1,5
		c-23,8-46.6,13.7-70.4,17.2c-13.8,2.1-28.3,3.4-43.6,4.2c-12.4,0.6-27.3,0.2-44.8-1c-4.8-0.3-8.7-0.7-11.6-1.2
		c-5.3-0.8-10.2-0.9-15.4-1.8c-11.4-2-17.8-3.1-19.2-3.4c-43.6-8.5-87.2-24.5-125.3-47.4c-66.2-39.8-120.4-98.4-154.9-167.3
		c-5.8-11.5-11.2-24.1-16.3-37.7c-1.5-3.9-4-11.8-7.7-23.8c-9.7-31.7-14.8-63.6-15.2-95.8c-0.2-15.4-0.2-32.4,1.4-48.3
		c2.9-28.6,8.2-55.5,15.7-80.5C90.2,288.9,114.4,243.9,146.7,205.1L146.7,205.1z M481.7,734.7l25.7,0.2c10.3-0.1,20.6-1.2,30.7-3.3
		c10.1-2.1,18.5-4.2,25.1-6.2c12.5-3.8,25.7-9.3,39.7-16.5c5.2-2.6,10.7-5.9,16.5-9.8c8-5.3,13.3-9,15.7-11
		c6.4-5.2,12.3-10.5,17.8-16.1c5.1-5.2,10-10.9,14.6-16.9c6.1-8,10.5-14,13.1-18.2c9.1-14.2,16.7-30.1,22.9-47.7
		c3.5-10,6.2-21.5,7.8-31.3c1.5-8.5,2.5-18.1,3.1-28.6c0.6-9.7,0.5-17.2-0.1-22.4c-0.9-7-1.4-13.5-2.5-20.1
		c-2.4-14.1-6.2-28.2-11.4-42.1c-2.1-5.5-4.6-11.1-7.7-16.8c-5.7-10.7-11.9-20.5-18.5-29.2c-9.7-12.8-21.5-24.1-35.4-33.9
		c-6.8-4.8-13.2-8.8-19.2-12.1c-12-6.5-25.8-11.8-41.2-16c-4.2-1.1-7.6-1.6-12-2.5c-12.8-2.9-26.4-3.2-40.5-2.5
		c-6.4,0.3-12.1,1.3-17.7,2c-9.1,1.1-19.1,3.5-30,7.2c-16.8,5.7-32.8,14.2-48,25.5c-13.3,9.9-24.8,20.8-34.5,32.9
		c-7.4,9.2-13,19.6-17.1,27.8c-0.1,0.1-0.2,0.2-0.3,0.1c-0.1,0-0.1-0.1-0.1-0.2c-0.9-8.8-0.4-17.1,1.6-25c1.7-6.5,3.2-11.5,4.6-14.9
		c1.2-2.9,3.5-7.8,6.9-14.9c1.6-3.2,4.7-7.9,9.2-13.9c0.2-0.2,0.3-0.5,0.5-0.7c2.8-5,5.8-7.6,9.3-11.8c12.1-14.5,26.8-27.1,44-37.8
		c7.6-4.7,15.3-8.9,23-12.6c7.3-3.4,15.4-6.5,24.6-9.2c17.9-5.3,35.6-8.5,53.1-9.5c9.2-0.5,17-0.4,23.6,0.2c4.7,0.5,7.4,0.7,8.1,0.8
		c5.3,0.3,9.5,1.4,14.5,2.1c1.8,0.2,3.9,0.6,6.5,1.2c22.8,5.3,43.9,14.7,63.4,28.4c13.5,9.5,25.8,20.3,36.9,32.5
		c20.2,22.2,36.9,46.6,51.9,72.6c1.9,3.4,4.7,6.4,9.1,6c0.4,0,0.7-0.2,1-0.5c1.2-1.1,1.7-2.3,1.7-3.5c0-4.8-0.4-9-1.2-12.8
		c-3.2-15.4-6.5-28.4-9.9-39.2c-8.7-27.5-21-53.1-37-76.8c-5.9-8.7-13.6-18.3-23.2-28.7c-5.9-6.4-14.6-13.8-20.3-18.3
		c-24.4-19.5-52.1-32.2-83-38c-7.4-1.4-14.5-2.4-21.3-3.1c-2.3-0.2-4.2-0.3-5.5-0.3c-4.9,0.1-9.4-0.6-13.9-0.4
		c-9,0.3-17.7,0.3-26,1.8c-1,0.2-3.2,0.5-6.8,1c-20.4,2.9-40.6,9.5-60.6,19.8c-11.5,5.9-22.1,12.5-31.9,19.8
		c-11.5,8.6-22.5,18.3-32.9,29.2c-3.2,3.3-6,7.4-8.9,10.6c-1.9,2.1-4.1,4.8-6.4,8.2c-4.5,6.3-7.1,10-7.8,11.2
		c-8.9,14.6-17,30.8-22.8,47.5c-8.5,24.8-11.7,50.4-9.7,76.7c1.1,14.3,5.2,29.5,12.3,45.6c3.4,7.6,9.3,16.5,14.2,22.8
		c14.6,18.8,36.5,33.5,60.2,36.3c10.3,1.2,20,0.8,29-1.3c9.1-2.1,17.3-4.7,24.4-7.9c0.6-0.3,1.3-0.4,2.1-0.3c0.1,0,0.3,0.1,0.2,0.3
		c0,0.1,0,0.1-0.1,0.2c-12.9,13.9-28.4,23.9-46.5,30c-5.1,1.8-9.9,2.9-14.1,3.3c-8.1,0.9-16,1-23.6,0.2
		c-18.5-1.8-36.3-13.3-48.7-26.8c-5.7-6.3-9-10-10-11.3c-12-15.9-20.9-31.7-26.8-47.4c-1.8-4.7-3.9-10.7-6.3-18.2
		c-0.9-2.9-3-11.3-6.1-25.4c-0.3-1.2-0.4-2.4-0.5-3.6c-0.1-3-0.9-6.2-1.3-9.1c-1.6-13.1-1.9-26.9-1-41.6c2.2-34.6,11-67.2,26.3-98
		c3.9-7.8,6.1-12.2,6.8-13.3c7.1-12.1,14.4-23.7,23-34.3c4.5-5.5,8.1-9.7,11-12.8c8.1-8.6,17.9-18.4,28.5-27.1
		c7.8-6.3,12.7-10.2,14.9-11.8c5.9-4.3,15.1-10.3,27.7-18c2-1.3,3.1-2.6,3.2-4.1c0.5-1-0.2-2.2-2.1-3.5c-8.3,0.2-18,1.8-29.1,4.9
		c-7.5,2.1-14.9,4.2-22.1,6.5c-3.1,1-6,2-8.7,3.1c-0.2,0.1-3.1,1.2-8.6,3.5c-13.5,5.5-27.6,12.5-42.1,21.1c-3.8,2.2-6.7,4.1-8.9,5.6
		c-7.3,5.1-14.2,9.4-21.5,15c-13.5,10.3-26.1,21.8-37.8,34.4c-26.5,28.5-45.6,61.2-57.3,98c-1.6,4.9-3.2,11-4.9,18.3
		c-2.1,9.1-3.4,15.3-3.9,18.5c-3.4,24.5-4.3,47.5-2.5,69.1c0.7,8.3,2.4,18.9,5.3,31.9c0.5,2.5,1.8,5,2.3,7.3
		c0.2,1.1-0.1,2.2-0.8,3.1c-10.2,11.1-16,25.9-17.3,40.7c-0.8,9.1,0.3,18.4,3.4,28c6.1,19.2,18,34.5,34.1,46.1
		c14.1,10.2,29.7,15.2,46.7,15c16.1-0.2,31-6.2,42.1-17.6c0.5-0.5,1.3-0.6,2-0.2c5.5,3.6,12.3,7.3,20.5,11.1
		c6.3,2.9,12.2,5.2,17.6,6.9c8.9,2.8,15,4.5,18.2,5.1c9.4,1.9,18.4,3.2,27.2,4c7.4,0.6,15.1,0.6,23,0c21.3-1.8,41.4-7,60.3-15.9
		c4.7-2.2,12-6.4,21.9-12.8c6.8-4.3,15.1-11.7,19.1-15.4c2.9-2.6,7.4-7.8,13.5-15.5c6.2-7.8,10.9-16.4,14-25.9
		c3-8.9,4.1-18.7,3.5-29.2c-0.9-15.6-5.1-30.3-12.6-44.3c-4.7-8.8-11.9-18.2-20.4-25c-5.7-4.6-9.2-7.3-10.6-8.2
		c-13-8.4-27.2-12.3-42.7-11.5c-6.2,0.3-11,2.1-16.1,4.6c-5.2,2.5-8.3,6.6-9.4,12.2c0,0.2-0.3,0.4-0.5,0.3c-0.1,0-0.3-0.1-0.3-0.2
		c-2.3-5.2-2-11.9-0.5-17.1c1-3.5,2.7-6.8,5.2-10c4.1-5.2,9-9.4,14.7-12.5c17.9-10,36.8-11.5,58.4-9.7c3.7,0.3,7.4,1,11.4,2
		c5.1,1.4,8.8,2.5,11.1,3.4c14.5,5.8,27.4,14.3,38.7,25.6c9.1,9.1,17,20,23.8,32.7c5.8,10.8,10.1,22.7,13.1,35.6
		c1.8,8,2.9,14.2,3.4,18.7c0.9,9.2,1.7,20.6,1.1,30.3c-0.9,14.2-3.3,27.6-7.1,40.4c-1,3.6-3,7.3-4,10.5c-0.6,2.1-1.7,4.7-3.3,7.7
		c-5.7,11.3-10.7,19.8-15.1,25.3c-7.4,9.4-14.7,17.1-21.9,23.1c-17.5,14.5-38,25.2-61.5,32.2c-6.8,2-13.1,3.8-18.7,5.3
		c-3.7,1-6.7,1.2-9.8,2c-1.7,0.5-4.2,0.9-7.4,1.2c-5.3,0.6-10.4,1.7-15.6,2c-21,1.4-42.8,1.3-63.7-1.7c-9.7-1.4-15.8-2.4-18.2-2.9
		c-9.8-2.1-17.1-3.5-21.9-4.3c-3.9-0.6-9.3,2.2-5.3,6.7c1.5,1.7,2.7,2.8,3.7,3.5c12.6,8.6,24,15.3,34.2,20
		c14.6,6.8,29.8,12.3,45.4,16.3c13.1,3.4,23.7,5.4,31.7,6.2c7.8,0.7,13,1.3,15.6,1.8C477,735.7,479.6,735.6,481.7,734.7L481.7,734.7
		z"/>
	<g id="g14">
		<path id="path12" class="st5" d="M145.9,204.5c7.2-8.7,12.9-15.1,17.1-19.3c10.5-10.7,17.8-17.8,21.6-21.2
			c6.3-5.5,12.2-10.5,17.8-15c22.8-18.5,47.2-34.2,73.2-47.1c7.7-3.8,17.1-8,28.1-12.5c29-11.9,59.9-19.8,90.6-24.1
			c20-2.8,42.5-4.5,63.2-4.3c13.5,0.2,27,0.8,40.5,2c9,0.8,18.5,2.1,28.6,4c54.5,10.1,104.7,30.7,150.8,61.8
			c28.2,19.1,53.5,41.2,76,66.4c3.8,4.2,9,10.7,15.6,19.4c5.7,7.4,10.5,14.1,14.3,20.1c14.7,22.8,26.2,44.1,34.7,64.1
			c38.4,90.6,42.5,194.3,8.8,287c-17.4,47.8-43.5,90.9-78.2,129.2c-8.2,9-17.6,18.5-28.3,28.3c-21.3,19.7-45.5,37.2-72.5,52.7
			c-15.3,8.8-34.2,17.5-50.5,23.7c-2.1,0.8-6.8,2.5-14.1,5c-23.1,8-46.7,13.7-70.6,17.3c-13.8,2.1-28.4,3.5-43.7,4.2
			c-12.4,0.6-27.4,0.2-44.9-1c-4.8-0.3-8.7-0.7-11.6-1.2c-5.3-0.8-10.2-1-15.5-1.9c-11.4-2-17.8-3.1-19.2-3.4
			C334,830,290.3,814,252.1,791c-66.3-39.9-120.7-98.7-155.3-167.7c-5.8-11.5-11.2-24.1-16.4-37.8c-1.5-3.9-4.1-11.9-7.7-23.8
			c-9.7-31.8-14.8-63.8-15.3-96.1c-0.2-15.4-0.2-32.5,1.5-48.4c2.9-28.7,8.2-55.6,15.8-80.6C89.3,288.4,113.5,243.4,145.9,204.5
			L145.9,204.5z M146.7,205.1c-32.3,38.8-56.5,83.8-71,131.8c-7.6,25-12.8,51.8-15.7,80.5c-1.6,15.9-1.7,32.9-1.4,48.3
			c0.5,32.2,5.6,64.1,15.2,95.8c3.6,11.9,6.2,19.8,7.7,23.8c5.1,13.6,10.6,26.2,16.3,37.7c34.6,68.9,88.8,127.5,154.9,167.3
			c38.1,22.9,81.7,38.9,125.3,47.4c1.4,0.3,7.8,1.4,19.2,3.4c5.3,0.9,10.2,1,15.4,1.8c2.9,0.4,6.8,0.8,11.6,1.2
			c17.5,1.2,32.5,1.6,44.8,1c15.3-0.7,29.8-2.1,43.6-4.2c23.8-3.6,47.4-9.2,70.4-17.2c7.3-2.5,12-4.2,14.1-5
			c16.3-6.2,35.1-14.9,50.3-23.7c26.9-15.4,51-33,72.3-52.6c10.7-9.8,20.1-19.2,28.2-28.3c34.7-38.2,60.7-81.2,78-128.8
			c33.6-92.5,29.5-195.9-8.8-286.3c-8.4-19.9-20-41.2-34.6-64c-3.8-6-8.6-12.6-14.3-20c-6.6-8.6-11.8-15.1-15.6-19.3
			c-22.4-25.1-47.6-47.2-75.8-66.2c-46-31-96.1-51.6-150.4-61.7c-10-1.9-19.5-3.2-28.5-3.9c-13.5-1.2-27-1.8-40.4-2
			c-20.6-0.2-43.1,1.5-63,4.3c-30.7,4.3-61.5,12.2-90.4,24.1c-11,4.5-20.3,8.7-28,12.5c-25.9,12.9-50.3,28.6-73,47
			c-5.6,4.5-11.5,9.5-17.8,15c-3.9,3.4-11.1,10.4-21.6,21.1C159.6,190,153.9,196.4,146.7,205.1L146.7,205.1z"/>
		<path id="path13" class="st5" d="M439.6,147.8c-2.3,0.5-4.6,0.9-7,1.2c-3.3,0.4-5.7,0.8-7.1,1.1c-38,8-73.6,22.7-106.6,44.2
			c-44.8,29.1-82.4,69.6-104,118.5c-13.3,30-20.6,61.8-22.1,95.4c-1,23.6,0.3,46.1,5.7,68.7c0.8,3.2,1.9,6,2.6,8.5
			c0.3,1,0,2.2-0.7,2.9c-10.1,10.8-15.2,23.8-17.3,38.4c-1.8,13.1,1.4,28.4,6.9,40.1c14.5,31.1,47.3,53.8,82.3,50
			c14.1-1.6,26.1-7.4,35.9-17.6c0.4-0.4,1-0.5,1.5-0.2c3.8,2.7,7.9,5.1,12.2,7.3c18.4,9.4,37.8,15.6,58.4,18.6
			c21,3.1,41.3,2.3,61.1-2.2c35.7-8.2,67.7-26.9,90.2-56.2c12.4-16.2,17.8-34.3,16.4-54.5c-1.5-21.4-8.7-40.3-21.6-56.6
			c-2.1-2.6-5.2-5.9-9.4-9.8c-16.1-14.9-36.3-23.1-58.4-20.3c-3.3,0.4-7,1.6-11,3.5c-6.9,3.3-7.7,7.4-10.5,13.5
			c-0.1,0.3-0.5,0.5-0.9,0.3c-0.2-0.1-0.3-0.2-0.3-0.4c-4.3-10.6-1.6-22.4,6-31c3.2-3.6,5.9-6.2,8-7.6c19.1-13,40.7-15.6,63.7-13.5
			c9.2,0.8,18.4,3.4,27.6,7.5c21.2,9.6,38.3,24.4,51.4,44.3c23.9,36.5,30.3,81.7,21.7,124.1c-4.2,20.5-12.8,39.4-24.6,55.9
			c-17.5,24.3-43.4,42.5-72,53.3c-29.3,11.1-59.6,16.6-90.9,16.3c-19.2-0.1-37.9-2-56.1-5.6c-14.4-2.8-21.6-4.2-21.6-4.2
			c-1.9-0.2-3.4-0.2-4.6,0.2c-1.2,0.4-2,1.6-1.7,2.8c0.6,2.4,4.9,5.5,7.1,7c14.9,10,30.4,18.2,46.6,24.5
			c27.3,10.7,55.7,16.8,85.3,18.3c-2.1,0.9-4.7,1-7.8,0.5c-2.6-0.4-7.8-1-15.6-1.8c-8.1-0.8-18.7-2.8-31.8-6.2
			c-15.6-4-30.8-9.5-45.4-16.3c-10.2-4.8-21.6-11.4-34.2-20c-1-0.7-2.2-1.8-3.7-3.5c-4-4.5,1.4-7.4,5.3-6.7
			c4.8,0.8,12.1,2.2,21.9,4.3c2.4,0.5,8.5,1.5,18.2,2.9c21,3,42.7,3.1,63.7,1.7c5.2-0.3,10.3-1.4,15.6-2c3.2-0.4,5.7-0.8,7.4-1.2
			c3.2-0.8,6.1-1,9.8-2c5.6-1.5,11.8-3.3,18.7-5.3c23.6-7,44.1-17.8,61.5-32.2c7.2-6,14.5-13.7,21.9-23.1c4.4-5.6,9.4-14,15.1-25.3
			c1.5-3,2.6-5.6,3.3-7.7c1-3.2,2.9-6.9,4-10.5c3.8-12.8,6.1-26.3,7.1-40.4c0.7-9.8-0.2-21.2-1.1-30.3c-0.5-4.5-1.6-10.7-3.4-18.7
			c-2.9-12.9-7.3-24.8-13.1-35.6c-6.8-12.7-14.7-23.6-23.8-32.7c-11.3-11.3-24.2-19.8-38.7-25.6c-2.3-0.9-6-2.1-11.1-3.4
			c-3.9-1.1-7.7-1.8-11.4-2c-21.6-1.8-40.5-0.3-58.4,9.7c-5.7,3.2-10.6,7.4-14.7,12.5c-2.5,3.1-4.2,6.4-5.2,10
			c-1.5,5.2-1.8,11.9,0.5,17.1c0.1,0.2,0.3,0.3,0.6,0.2c0.1-0.1,0.2-0.2,0.2-0.3c1-5.6,4.2-9.6,9.4-12.2c5.2-2.5,9.9-4.3,16.1-4.6
			c15.4-0.8,29.7,3.1,42.7,11.5c1.4,0.9,4.9,3.6,10.6,8.2c8.5,6.8,15.7,16.3,20.4,25c7.5,14,11.7,28.8,12.6,44.3
			c0.6,10.5-0.6,20.2-3.5,29.2c-3.1,9.5-7.8,18.1-14,25.9c-6.2,7.7-10.7,12.9-13.5,15.5c-4,3.7-12.3,11.1-19.1,15.4
			c-9.9,6.3-17.2,10.6-21.9,12.8c-18.9,8.8-39,14.1-60.3,15.9c-7.9,0.6-15.6,0.7-23,0c-8.8-0.7-17.9-2.1-27.2-4
			c-3.2-0.6-9.3-2.3-18.2-5.1c-5.4-1.7-11.3-4-17.6-6.9c-8.2-3.7-15-7.4-20.5-11.1c-0.6-0.4-1.4-0.3-2,0.2
			c-11.2,11.4-26,17.4-42.1,17.6c-17,0.2-32.6-4.8-46.7-15c-16.1-11.7-27.9-27-34.1-46.1c-3.1-9.6-4.2-18.9-3.4-28
			c1.3-14.9,7.1-29.6,17.3-40.7c0.8-0.8,1.1-2,0.8-3.1c-0.5-2.3-1.7-4.8-2.3-7.3c-2.8-13-4.6-23.7-5.3-32c-1.8-21.6-1-44.6,2.5-69.1
			c0.5-3.3,1.7-9.4,3.9-18.5c1.7-7.3,3.3-13.4,4.9-18.3c11.7-36.8,30.7-69.5,57.3-98c11.7-12.6,24.3-24.1,37.8-34.4
			c7.3-5.6,14.2-9.9,21.5-15c2.1-1.5,5.1-3.4,8.9-5.6c14.5-8.6,28.5-15.7,42.1-21.1c5.5-2.2,8.4-3.4,8.6-3.5
			c2.7-1.1,5.6-2.2,8.7-3.1c7.2-2.3,14.6-4.4,22.1-6.5C421.6,149.6,431.3,147.9,439.6,147.8L439.6,147.8z"/>
		<path id="path14" class="st5" d="M441.7,151.3c-0.1,1.5-1.2,2.8-3.2,4.1c-12.5,7.8-21.8,13.8-27.7,18.1
			c-2.1,1.6-7.1,5.5-14.9,11.8c-10.6,8.7-20.5,18.4-28.5,27c-2.8,3-6.5,7.3-11,12.8c-8.6,10.6-15.9,22.1-23,34.3
			c-0.6,1.1-2.9,5.5-6.8,13.3c-15.3,30.8-24.1,63.4-26.3,98c-0.9,14.7-0.6,28.5,1,41.6c0.4,2.9,1.1,6.1,1.3,9.1
			c0.1,1.3,0.2,2.5,0.5,3.6c3.1,14,5.1,22.5,6.1,25.4c2.5,7.4,4.6,13.5,6.3,18.2c5.9,15.7,14.8,31.5,26.8,47.4
			c0.9,1.2,4.3,5,10,11.3c12.4,13.6,30.2,25,48.7,26.8c7.7,0.8,15.5,0.7,23.6-0.2c4.3-0.5,9-1.6,14.1-3.3
			c18.1-6.2,33.5-16.2,46.5-30c0.1-0.1,0.1-0.3,0-0.4c0,0-0.1-0.1-0.2-0.1c-0.8-0.1-1.5,0-2.1,0.3c-7.1,3.1-15.3,5.8-24.4,7.9
			c-9,2.1-18.7,2.5-29,1.3c-23.8-2.8-45.6-17.5-60.2-36.3c-4.9-6.3-10.8-15.2-14.2-22.8c-7.1-16.1-11.2-31.3-12.3-45.6
			c-2-26.3,1.2-51.9,9.7-76.7c5.7-16.7,13.9-32.9,22.8-47.5c0.7-1.2,3.3-4.9,7.8-11.2c2.4-3.3,4.5-6.1,6.4-8.2
			c3-3.3,5.8-7.3,8.9-10.6c10.4-10.9,21.3-20.6,32.9-29.2c9.8-7.3,20.4-13.9,31.9-19.8c20-10.3,40.2-16.9,60.6-19.8
			c3.5-0.5,5.8-0.9,6.8-1c8.3-1.5,17-1.5,26-1.8c4.5-0.2,9,0.5,13.9,0.4c1.3,0,3.2,0.1,5.5,0.3c6.7,0.7,13.8,1.7,21.3,3.1
			c30.9,5.8,58.6,18.5,83,38c5.7,4.5,14.4,11.9,20.3,18.3c9.6,10.4,17.3,20,23.2,28.7c16,23.7,28.3,49.3,37,76.8
			c3.4,10.8,6.7,23.8,9.9,39.2c0.8,3.8,1.2,8.1,1.2,12.8c0,1.2-0.6,2.4-1.7,3.5c-0.3,0.3-0.6,0.4-1,0.5c-4.4,0.5-7.2-2.6-9.1-6
			c-15-26-31.7-50.4-51.9-72.6c-11.1-12.2-23.4-23-36.9-32.5c-19.5-13.7-40.6-23.2-63.4-28.4c-2.5-0.6-4.7-1-6.5-1.2
			c-5-0.7-9.2-1.8-14.5-2.1c-0.7,0-3.4-0.3-8.1-0.8c-6.6-0.6-14.5-0.7-23.6-0.2c-17.5,1-35.2,4.2-53.1,9.5
			c-9.1,2.7-17.3,5.8-24.6,9.2c-7.7,3.7-15.4,7.8-23,12.6c-17.2,10.7-31.9,23.3-44,37.8c-3.5,4.2-6.6,6.9-9.3,11.8
			c-0.1,0.3-0.3,0.5-0.5,0.7c-4.6,6.1-7.6,10.7-9.2,13.9c-3.4,7-5.7,12-6.9,14.9c-1.4,3.4-2.9,8.3-4.6,14.9c-2,7.9-2.6,16.3-1.6,25
			c0,0.1,0.1,0.2,0.2,0.2c0.1,0,0.2-0.1,0.2-0.1c4.2-8.2,9.8-18.7,17.1-27.8c9.7-12.1,21.3-23.1,34.5-32.9
			c15.2-11.3,31.2-19.8,48-25.5c10.9-3.7,20.9-6.1,30-7.2c5.6-0.7,11.3-1.7,17.7-2c14.1-0.6,27.7-0.3,40.5,2.5c4.4,1,7.8,1.4,12,2.5
			c15.5,4.2,29.2,9.5,41.2,16c6,3.2,12.4,7.3,19.2,12.1c13.9,9.8,25.7,21.1,35.4,33.9c6.6,8.7,12.8,18.5,18.5,29.2
			c3,5.7,5.6,11.3,7.7,16.8c5.3,14,9.1,28,11.4,42.1c1.1,6.7,1.6,13,2.5,20.1c0.7,5.3,0.7,12.7,0.1,22.4
			c-0.6,10.5-1.7,20.1-3.1,28.6c-1.7,9.8-4.3,21.3-7.8,31.3c-6.2,17.7-13.8,33.6-22.9,47.7c-2.6,4.1-7,10.2-13.1,18.2
			c-4.6,6.1-9.5,11.7-14.6,16.9c-5.5,5.6-11.4,11-17.8,16.1c-2.5,2-7.7,5.7-15.7,11c-5.8,3.9-11.3,7.2-16.5,9.8
			c-14,7.2-27.2,12.7-39.7,16.5c-6.6,2-15,4.1-25.1,6.2c-10.2,2.1-20.4,3.2-30.7,3.3c5.8-0.9,11.6-1.8,17.3-2.5
			c29.9-3.7,57.7-12.9,83.5-27.5c21.4-12.2,40-27.7,55.6-46.6c26.9-32.5,44-71.8,48.3-113.9c0.9-8.6,1.3-17.4,1.3-26.5
			c0-7.3-0.4-10.3-1.2-18.5c-2.8-30.1-12.1-58.2-27.9-84.2c-10.2-16.8-22.8-31.5-38.5-44c-20-15.9-42.6-27.1-68-33.5
			c-10.5-2.7-20.4-4.3-29.6-4.9c-21.4-1.4-43,0.9-63.8,6.8c-10.3,3-20.9,7.4-31.7,13.2c-27,14.6-51.5,36.1-67.2,62.8
			c-2.7,4.5-4.8,8.9-6.4,13.2c-0.1,0.3-0.5,0.5-0.8,0.4c0,0,0,0,0,0c-0.5-0.2-0.9-0.7-1-1.5c-0.9-7.6-1-13.9,0.3-21.1
			c5.3-30.5,24.3-55.6,46.1-76.5c9.9-9.5,21.8-18.3,35.5-26.3c13.7-8.1,27.7-14.2,41.9-18.6c22.1-6.7,44.6-10.1,67.4-10.1
			c5,0,12.7,0.6,22.9,1.9c44.5,5.6,84.3,28.8,114.9,61.5c14.9,15.9,28.7,34,41.4,54.1c4.9,7.7,9.4,15,13.5,21.7
			c1.3,2.1,5.1,6.6,7.9,5.2c2.8-1.3,1.7-7.9,1.2-10.5c-1.3-7.3-2.7-14.1-4.2-20.6c-7.5-32.6-19.9-63-37.2-91
			C707.4,262.6,677,233.8,640,217c-48.1-21.9-106.5-22.4-155.4-4.2c-14.7,5.5-28.9,12.7-42.5,21.7c-13.6,9-25.9,19-37,30.1
			c-16.4,16.6-29.9,35.4-40.5,56.5c-13.8,27.6-20.9,56.6-21.5,87c-0.2,10.4,0.6,19.8,2.2,28.3c3.3,16.7,8.8,33.2,18.2,47.2
			c10.1,15.2,21.5,26.9,37.4,35.5c18,9.7,37.3,12.3,57.7,7.9c6.9-1.5,14.8-4,23.6-7.4c1.7-0.6,3.6-1.1,5.5-1.7
			c0.2-0.1,0.3,0,0.4,0.2c0,0.1,0,0.2-0.1,0.3c-13.3,15-29.4,25.8-48.3,32.5c-7.2,2.5-15.4,4.1-24.6,4.6
			c-21.5,1.2-40.3-6.4-56.6-20.9c-9.5-8.5-18.1-18.5-25.8-30.2c-17.4-26.7-28.1-57.5-32.3-89.3c-1.9-14.2-2.3-29.1-1.2-44.6
			c1.5-22.5,5.7-43.8,12.4-63.9c12.8-38.1,33.4-73.3,61.7-102.1c11.6-11.8,23.7-22.3,36.4-31.4c8.2-5.9,17.6-12.1,28-18.5
			C438.7,154.1,440,153,441.7,151.3L441.7,151.3z"/>
	</g>
</g>
</svg>
