<svg xmlns="http://www.w3.org/2000/svg" width="32" height="32" viewBox="0 0 32 32">
  <path fill="#0A56AA" fill-rule="evenodd" d="M 17.312 27.789 L 14.094 27.758 L 13.812 27.680 L 13.672 27.570 L 12.859 27.492 L 12.734 27.445 L 12.672 27.336 L 12.047 27.258 L 11.703 27.039 L 11.250 26.945 L 11.172 26.805 L 10.781 26.758 L 10.641 26.602 L 10.266 26.508 L 10.141 26.305 L 9.844 26.273 L 9.672 26.133 L 9.578 26.133 L 9.188 25.789 L 9.031 25.758 L 8.938 25.555 L 8.734 25.508 L 8.672 25.273 L 8.484 25.289 L 8.344 25.227 L 8.203 25.039 L 8.031 25.008 L 7.961 24.812 L 7.766 24.758 L 7.656 24.539 L 7.484 24.492 L 7.445 24.312 L 7.234 24.242 L 7.180 24.094 L 7.000 24.008 L 6.914 23.828 L 6.750 23.742 L 6.695 23.594 L 6.477 23.438 L 6.445 23.297 L 6.258 23.188 L 6.195 23.016 L 5.727 22.469 L 5.695 22.312 L 5.539 22.188 L 5.398 21.938 L 5.398 21.812 L 5.242 21.734 L 5.195 21.547 L 4.992 21.297 L 4.945 21.078 L 4.742 20.828 L 4.711 20.625 L 4.477 20.250 L 4.398 19.812 L 4.312 19.789 L 4.242 19.656 L 4.180 19.078 L 4.062 19.039 L 3.977 18.891 L 3.898 18.078 L 3.789 18.016 L 3.742 17.859 L 3.633 16.891 L 3.633 16.094 L 3.555 15.891 L 3.570 15.047 L 3.664 14.953 L 3.727 13.297 L 3.805 13.000 L 3.930 12.922 L 3.977 12.203 L 4.039 12.016 L 4.133 11.938 L 4.258 11.344 L 4.445 11.172 L 4.492 10.719 L 4.711 10.359 L 4.758 10.141 L 4.961 9.969 L 5.008 9.672 L 5.195 9.438 L 5.352 9.062 L 5.477 8.953 L 5.570 8.734 L 6.164 7.969 L 6.227 7.812 L 6.445 7.672 L 6.531 7.477 L 6.695 7.422 L 6.750 7.242 L 6.945 7.172 L 7.016 6.977 L 7.195 6.922 L 7.195 6.797 L 7.406 6.680 L 7.500 6.492 L 7.641 6.445 L 7.812 6.211 L 7.938 6.195 L 8.016 6.039 L 8.172 5.977 L 8.547 5.648 L 8.625 5.648 L 8.734 5.492 L 8.953 5.445 L 9.078 5.258 L 9.391 5.133 L 9.500 4.977 L 9.781 4.867 L 9.938 4.727 L 10.188 4.680 L 10.344 4.508 L 10.672 4.414 L 10.922 4.227 L 11.375 4.133 L 11.516 3.992 L 11.938 3.961 L 12.062 3.805 L 12.266 3.727 L 12.922 3.648 L 13.016 3.539 L 13.188 3.492 L 14.203 3.414 L 14.375 3.305 L 14.891 3.227 L 17.375 3.242 L 17.906 3.320 L 18.062 3.414 L 18.812 3.477 L 19.031 3.555 L 19.078 3.664 L 19.750 3.727 L 20.297 3.977 L 20.469 3.977 L 20.625 4.117 L 21.078 4.242 L 21.281 4.414 L 21.422 4.414 L 21.688 4.539 L 21.797 4.695 L 22.094 4.742 L 22.281 4.961 L 22.469 4.977 L 22.586 5.062 L 22.594 5.148 L 22.922 5.242 L 23.062 5.445 L 23.234 5.477 L 23.906 5.961 L 24.023 6.078 L 24.023 6.156 L 24.188 6.211 L 24.312 6.445 L 24.484 6.492 L 24.578 6.680 L 24.750 6.742 L 24.820 6.906 L 24.938 6.930 L 25.055 7.047 L 25.055 7.172 L 25.172 7.180 L 25.289 7.297 L 25.305 7.422 L 25.484 7.492 L 25.539 7.656 L 25.758 7.812 L 26.633 9.062 L 26.773 9.438 L 26.930 9.594 L 27.070 10.141 L 27.211 10.172 L 27.273 10.438 L 27.508 10.766 L 27.523 10.969 L 27.617 11.062 L 27.602 11.188 L 27.758 11.453 L 27.805 11.922 L 27.945 12.047 L 27.992 12.188 L 28.023 12.922 L 28.180 13.031 L 28.258 13.297 L 28.305 14.469 L 28.430 14.969 L 28.430 16.031 L 28.336 16.266 L 28.258 17.797 L 28.070 18.250 L 28.008 18.938 L 27.922 19.055 L 27.805 19.062 L 27.742 19.688 L 27.586 19.828 L 27.508 20.281 L 27.305 20.531 L 27.180 21.016 L 27.070 21.078 L 26.930 21.469 L 26.805 21.547 L 26.773 21.719 L 26.523 22.031 L 26.492 22.188 L 26.305 22.312 L 26.227 22.562 L 25.930 22.969 L 25.773 23.062 L 25.758 23.188 L 25.539 23.328 L 25.438 23.523 L 25.320 23.547 L 25.305 23.688 L 25.188 23.820 L 25.055 23.828 L 25.070 23.953 L 24.945 24.109 L 24.703 24.320 L 24.578 24.320 L 24.570 24.453 L 24.438 24.570 L 24.328 24.555 L 24.320 24.688 L 24.172 24.820 L 24.062 24.820 L 23.969 25.008 L 23.812 25.039 L 23.703 25.242 L 23.547 25.258 L 23.406 25.445 L 23.203 25.555 L 23.078 25.539 L 23.000 25.742 L 22.766 25.820 L 22.438 26.102 L 22.328 26.102 L 22.234 26.242 L 21.844 26.336 L 21.766 26.492 L 21.359 26.586 L 21.352 26.672 L 21.234 26.758 L 21.031 26.773 L 20.656 27.008 L 20.312 27.055 L 19.984 27.258 L 19.562 27.305 L 19.172 27.508 L 18.328 27.586 L 18.266 27.680 L 17.984 27.758 L 17.312 27.789 Z M 17.680 24.250 L 18.922 24.164 L 18.984 24.055 L 19.125 23.992 L 19.719 23.930 L 19.781 23.805 L 20.156 23.695 L 21.172 23.164 L 21.250 23.039 L 21.453 22.977 L 21.812 22.602 L 22.125 22.398 L 22.148 22.312 L 22.398 22.125 L 22.789 21.531 L 22.930 21.438 L 23.352 20.641 L 23.336 20.562 L 23.477 20.438 L 23.492 20.266 L 23.633 20.125 L 23.742 19.547 L 23.883 19.391 L 23.898 19.078 L 23.977 18.953 L 24.039 17.312 L 23.977 16.453 L 23.867 15.938 L 23.727 15.703 L 23.664 15.266 L 23.555 15.188 L 23.477 14.984 L 23.477 14.797 L 23.414 14.703 L 23.445 14.578 L 23.281 14.570 L 23.195 14.453 L 23.195 14.281 L 22.992 14.188 L 22.930 13.953 L 22.961 13.797 L 22.750 13.789 L 22.664 13.688 L 22.656 13.555 L 22.562 13.570 L 22.414 13.438 L 22.406 13.352 L 22.328 13.352 L 21.719 12.789 L 21.547 12.758 L 21.438 12.570 L 21.297 12.570 L 21.047 12.445 L 20.922 12.273 L 20.609 12.258 L 20.203 12.039 L 19.766 11.992 L 19.453 11.820 L 19.203 11.789 L 17.750 11.820 L 17.312 11.992 L 16.797 12.039 L 16.469 12.258 L 16.312 12.273 L 15.953 12.508 L 15.781 12.539 L 15.188 13.023 L 15.078 13.023 L 14.906 13.242 L 14.508 13.547 L 14.406 13.742 L 14.258 13.797 L 14.242 13.953 L 14.039 14.078 L 14.008 14.266 L 13.828 14.523 L 13.711 14.500 L 13.750 14.305 L 13.656 14.508 L 13.539 14.484 L 13.539 14.094 L 13.773 13.297 L 13.898 13.188 L 14.055 12.797 L 14.211 12.703 L 14.242 12.516 L 14.445 12.422 L 14.445 12.281 L 14.531 12.180 L 14.680 12.172 L 14.680 12.031 L 14.766 11.945 L 14.945 11.922 L 14.930 11.797 L 15.023 11.609 L 15.469 11.242 L 15.688 11.164 L 15.797 11.008 L 16.156 10.898 L 16.250 10.727 L 16.422 10.727 L 16.719 10.492 L 17.172 10.383 L 17.328 10.242 L 18.516 9.977 L 20.609 9.992 L 20.781 10.055 L 20.828 10.148 L 21.469 10.211 L 21.750 10.398 L 22.047 10.477 L 22.531 10.742 L 22.602 10.797 L 22.578 10.898 L 22.891 10.961 L 23.062 11.211 L 23.219 11.227 L 23.328 11.414 L 23.422 11.414 L 23.656 11.617 L 24.023 12.000 L 24.070 12.141 L 24.258 12.266 L 24.289 12.406 L 24.508 12.547 L 24.523 12.656 L 24.914 13.078 L 25.055 13.438 L 25.211 13.531 L 25.258 13.703 L 25.508 13.984 L 25.680 14.312 L 25.812 14.414 L 25.852 14.141 L 25.742 13.969 L 25.680 13.078 L 25.539 12.953 L 25.430 12.344 L 25.258 12.188 L 25.195 11.797 L 24.977 11.531 L 24.930 11.078 L 24.742 11.031 L 24.711 10.812 L 24.523 10.688 L 24.414 10.312 L 24.289 10.312 L 24.180 10.047 L 24.008 9.969 L 23.992 9.812 L 23.828 9.742 L 23.461 9.281 L 23.258 9.172 L 23.188 9.008 L 23.047 9.008 L 22.938 8.805 L 22.688 8.742 L 22.312 8.508 L 22.172 8.336 L 22.062 8.352 L 21.906 8.227 L 21.797 8.227 L 21.688 8.055 L 21.125 7.992 L 20.906 7.805 L 19.469 7.680 L 17.547 7.805 L 17.438 7.961 L 17.062 7.992 L 16.906 8.102 L 16.812 8.086 L 16.703 8.227 L 16.297 8.320 L 16.141 8.492 L 16.031 8.508 L 15.922 8.617 L 15.812 8.602 L 15.703 8.758 L 15.562 8.773 L 15.188 9.148 L 14.844 9.320 L 14.773 9.469 L 14.500 9.742 L 14.305 9.828 L 14.289 9.938 L 14.086 10.078 L 14.008 10.297 L 13.805 10.500 L 13.680 10.750 L 13.555 10.812 L 13.492 11.078 L 13.289 11.297 L 13.227 11.578 L 13.039 11.781 L 12.992 12.156 L 12.805 12.547 L 12.711 13.219 L 12.586 13.453 L 12.570 14.938 L 12.711 15.062 L 12.805 15.688 L 12.930 15.812 L 13.023 16.188 L 13.242 16.438 L 13.305 16.703 L 13.492 16.781 L 13.492 16.922 L 13.656 16.977 L 13.812 17.227 L 13.953 17.242 L 14.047 17.430 L 14.391 17.523 L 14.547 17.711 L 15.375 17.852 L 15.906 17.852 L 16.188 17.742 L 16.703 17.742 L 16.930 17.812 L 16.844 17.836 L 16.453 18.242 L 16.297 18.273 L 15.984 18.508 L 15.562 18.586 L 15.469 18.711 L 15.266 18.758 L 14.031 18.758 L 13.656 18.523 L 13.469 18.492 L 13.375 18.352 L 13.062 18.211 L 12.305 17.391 L 12.195 17.203 L 12.211 17.062 L 11.977 16.891 L 11.867 16.672 L 11.883 16.578 L 11.727 16.422 L 11.648 16.062 L 11.492 15.844 L 11.398 15.281 L 11.242 14.984 L 11.180 13.062 L 11.102 12.922 L 11.195 12.469 L 11.227 11.875 L 11.430 11.453 L 11.477 10.938 L 11.617 10.688 L 11.570 10.547 L 11.680 10.484 L 11.727 10.266 L 11.961 9.969 L 11.977 9.766 L 12.211 9.438 L 12.242 9.266 L 12.383 9.172 L 12.383 9.047 L 12.586 8.734 L 12.766 8.492 L 12.930 8.422 L 12.961 8.250 L 13.047 8.164 L 13.164 8.156 L 13.164 8.047 L 13.273 7.891 L 13.797 7.352 L 14.062 7.148 L 14.141 7.164 L 14.180 7.047 L 14.422 6.930 L 14.562 6.727 L 14.875 6.664 L 14.922 6.508 L 15.062 6.414 L 15.188 6.414 L 15.234 6.289 L 15.523 6.109 L 15.531 6.055 L 15.047 6.055 L 14.672 6.258 L 14.047 6.305 L 14.023 6.422 L 13.922 6.492 L 13.359 6.602 L 13.367 6.672 L 13.219 6.758 L 12.828 6.773 L 12.719 7.008 L 12.594 7.008 L 12.266 7.242 L 12.062 7.289 L 11.672 7.586 L 11.578 7.570 L 11.469 7.758 L 11.312 7.789 L 11.047 8.055 L 10.844 8.070 L 10.836 8.203 L 10.703 8.336 L 10.594 8.336 L 10.531 8.508 L 10.305 8.578 L 10.281 8.742 L 10.203 8.805 L 10.023 8.797 L 10.039 8.984 L 9.508 9.562 L 9.430 9.750 L 9.289 9.828 L 9.148 10.188 L 9.008 10.297 L 8.992 10.438 L 8.805 10.531 L 8.711 10.938 L 8.570 11.031 L 8.492 11.453 L 8.352 11.594 L 8.242 12.219 L 8.070 12.516 L 7.992 13.484 L 7.820 14.219 L 7.820 14.969 L 7.977 15.562 L 8.070 16.625 L 8.008 16.859 L 7.773 17.047 L 7.742 17.344 L 7.680 17.516 L 7.586 17.578 L 7.555 18.438 L 7.742 18.797 L 7.805 19.188 L 7.930 19.250 L 8.008 19.453 L 8.164 19.562 L 8.344 19.898 L 8.422 19.898 L 8.781 20.195 L 8.906 20.227 L 9.062 20.414 L 9.750 20.539 L 9.844 20.664 L 10.438 20.648 L 10.578 20.508 L 10.891 20.461 L 11.078 20.367 L 11.344 20.148 L 11.438 20.164 L 11.453 20.227 L 11.594 20.164 L 11.938 20.227 L 12.281 20.461 L 12.484 20.477 L 12.625 20.633 L 12.812 20.695 L 13.922 20.852 L 14.062 20.961 L 14.953 20.961 L 15.234 20.914 L 15.312 20.789 L 16.188 20.664 L 16.281 20.539 L 16.688 20.430 L 16.922 20.258 L 17.156 20.180 L 17.672 19.758 L 17.797 19.680 L 17.906 19.695 L 17.930 19.531 L 18.164 19.391 L 18.164 19.297 L 18.523 18.891 L 18.664 18.625 L 18.742 18.281 L 18.883 18.141 L 18.945 17.953 L 18.945 17.078 L 18.742 16.734 L 18.680 16.312 L 18.461 15.984 L 18.445 15.797 L 18.328 15.789 L 18.227 15.672 L 18.211 15.547 L 18.078 15.492 L 17.891 15.258 L 17.812 15.258 L 17.688 15.070 L 17.297 14.930 L 17.188 14.773 L 16.469 14.727 L 15.844 14.789 L 15.641 14.977 L 15.422 14.961 L 15.352 14.891 L 15.430 14.719 L 15.477 14.297 L 15.680 14.188 L 15.750 13.992 L 15.953 13.961 L 16.109 13.742 L 16.688 13.648 L 16.781 13.539 L 17.047 13.477 L 17.922 13.477 L 18.844 13.758 L 19.078 13.945 L 19.219 13.977 L 19.328 14.164 L 19.594 14.258 L 20.008 14.641 L 20.023 14.953 L 20.219 14.961 L 20.273 15.203 L 20.492 15.297 L 20.539 15.672 L 20.758 15.781 L 20.836 16.188 L 20.992 16.422 L 21.070 17.703 L 21.109 17.742 L 21.172 17.617 L 21.195 17.797 L 21.117 18.922 L 21.039 19.062 L 21.008 19.438 L 20.906 19.586 L 20.836 19.594 L 20.711 20.172 L 20.289 20.781 L 20.258 20.953 L 20.055 21.094 L 19.984 21.242 L 19.828 21.289 L 19.719 21.492 L 19.547 21.539 L 19.422 21.758 L 19.312 21.773 L 18.906 22.133 L 18.812 22.117 L 18.688 22.258 L 18.328 22.367 L 18.188 22.492 L 17.781 22.570 L 17.453 22.758 L 16.797 22.789 L 16.594 22.836 L 16.578 22.930 L 16.234 23.008 L 14.062 23.008 L 13.750 22.930 L 13.758 22.844 L 13.688 22.805 L 12.750 22.758 L 12.617 22.844 L 12.797 22.961 L 12.953 22.977 L 13.062 23.180 L 13.281 23.227 L 13.562 23.445 L 13.812 23.492 L 14.031 23.695 L 14.391 23.727 L 14.781 23.930 L 15.203 23.977 L 15.547 24.180 L 17.680 24.250 Z"/>
</svg>
